<svg width="25" height="24" viewBox="0 0 25 24" fill="none" xmlns="http://www.w3.org/2000/svg">
<path fill-rule="evenodd" clip-rule="evenodd" d="M6.82771 8.34749L7.43071 15.5195C7.47471 16.0715 7.92571 16.4855 8.47671 16.4855H8.48071H19.3917H19.3937C19.9147 16.4855 20.3597 16.0975 20.4337 15.5825L21.3837 9.02349C21.4057 8.86749 21.3667 8.71149 21.2717 8.58549C21.1777 8.45849 21.0397 8.37649 20.8837 8.35449C20.6747 8.36249 12.0017 8.35049 6.82771 8.34749ZM8.47472 17.9855C7.15772 17.9855 6.04272 16.9575 5.93572 15.6425L5.01972 4.74849L3.51272 4.48849C3.10372 4.41649 2.83072 4.02949 2.90072 3.62049C2.97272 3.21149 3.36772 2.94549 3.76772 3.00949L5.84772 3.36949C6.18272 3.42849 6.43772 3.70649 6.46672 4.04649L6.70172 6.84749C20.9777 6.85349 21.0237 6.86049 21.0927 6.86849C21.6497 6.94949 22.1397 7.24049 22.4737 7.68849C22.8077 8.13549 22.9477 8.68649 22.8677 9.23849L21.9187 15.7965C21.7397 17.0445 20.6557 17.9855 19.3957 17.9855H19.3907H8.48272H8.47472Z" fill="#252525"/>
<path fill-rule="evenodd" clip-rule="evenodd" d="M17.7876 12.0437H15.0156C14.6006 12.0437 14.2656 11.7077 14.2656 11.2937C14.2656 10.8797 14.6006 10.5437 15.0156 10.5437H17.7876C18.2016 10.5437 18.5376 10.8797 18.5376 11.2937C18.5376 11.7077 18.2016 12.0437 17.7876 12.0437Z" fill="#252525"/>
<path fill-rule="evenodd" clip-rule="evenodd" d="M8.04451 20.7019C8.34551 20.7019 8.58851 20.9449 8.58851 21.2459C8.58851 21.5469 8.34551 21.7909 8.04451 21.7909C7.74251 21.7909 7.49951 21.5469 7.49951 21.2459C7.49951 20.9449 7.74251 20.7019 8.04451 20.7019Z" fill="#252525"/>
<mask id="mask0" mask-type="alpha" maskUnits="userSpaceOnUse" x="7" y="20" width="2" height="2">
<path fill-rule="evenodd" clip-rule="evenodd" d="M7.49902 21.2457C7.49902 21.5477 7.74202 21.7917 8.04502 21.7917C8.34602 21.7917 8.58902 21.5477 8.58902 21.2457C8.58902 20.9447 8.34602 20.7017 8.04502 20.7017C7.74202 20.7017 7.49902 20.9447 7.49902 21.2457Z" fill="white"/>
</mask>
<g mask="url(#mask0)">
<path fill-rule="evenodd" clip-rule="evenodd" d="M2.5 26.7907H13.589V15.7017H2.5V26.7907Z" fill="#252525"/>
</g>
<path fill-rule="evenodd" clip-rule="evenodd" d="M8.04351 21.0409C7.93051 21.0409 7.83851 21.1329 7.83851 21.2459C7.83851 21.4729 8.24951 21.4729 8.24951 21.2459C8.24951 21.1329 8.15651 21.0409 8.04351 21.0409ZM8.04351 22.5409C7.32951 22.5409 6.74951 21.9599 6.74951 21.2459C6.74951 20.5319 7.32951 19.9519 8.04351 19.9519C8.75751 19.9519 9.33851 20.5319 9.33851 21.2459C9.33851 21.9599 8.75751 22.5409 8.04351 22.5409Z" fill="#252525"/>
<path fill-rule="evenodd" clip-rule="evenodd" d="M19.3248 20.7019C19.6258 20.7019 19.8698 20.9449 19.8698 21.2459C19.8698 21.5469 19.6258 21.7909 19.3248 21.7909C19.0228 21.7909 18.7798 21.5469 18.7798 21.2459C18.7798 20.9449 19.0228 20.7019 19.3248 20.7019Z" fill="#252525"/>
<mask id="mask1" mask-type="alpha" maskUnits="userSpaceOnUse" x="18" y="20" width="2" height="2">
<path fill-rule="evenodd" clip-rule="evenodd" d="M18.78 21.2457C18.78 21.5477 19.023 21.7917 19.325 21.7917C19.625 21.7917 19.87 21.5477 19.87 21.2457C19.87 20.9447 19.625 20.7017 19.325 20.7017C19.023 20.7017 18.78 20.9447 18.78 21.2457Z" fill="white"/>
</mask>
<g mask="url(#mask1)">
<path fill-rule="evenodd" clip-rule="evenodd" d="M13.78 26.7907H24.87V15.7017H13.78V26.7907Z" fill="#252525"/>
</g>
<path fill-rule="evenodd" clip-rule="evenodd" d="M19.3238 21.0409C19.2118 21.0409 19.1198 21.1329 19.1198 21.2459C19.1208 21.4749 19.5308 21.4729 19.5298 21.2459C19.5298 21.1329 19.4368 21.0409 19.3238 21.0409ZM19.3239 22.5409C18.6098 22.5409 18.0298 21.9599 18.0298 21.2459C18.0298 20.5319 18.6098 19.9519 19.3239 19.9519C20.0389 19.9519 20.6199 20.5319 20.6199 21.2459C20.6199 21.9599 20.0389 22.5409 19.3239 22.5409Z" fill="#252525"/>
</svg>
