<svg width="30" height="30" viewBox="0 0 30 30" fill="none" xmlns="http://www.w3.org/2000/svg">
<g clip-path="url(#clip0)">
<path d="M10.3852 19H18.6148C20.9907 19 23.1627 17.6576 24.2253 15.5325L24.2891 15.4049C25.3397 13.3037 25.1281 10.7915 23.7409 8.89555L19.4537 3.0364C16.9227 -0.422592 11.7453 -0.380985 9.27023 3.11824L5.1695 8.91583C3.83379 10.8042 3.64572 13.2745 4.68015 15.3434L4.77473 15.5325C5.83729 17.6576 8.0093 19 10.3852 19Z" fill="white"/>
<path d="M10.3852 19H18.6148C20.9907 19 23.1627 17.6576 24.2253 15.5325L24.2891 15.4049C25.3397 13.3037 25.1281 10.7915 23.7409 8.89555L19.4537 3.0364C16.9227 -0.422592 11.7453 -0.380985 9.27023 3.11824L5.1695 8.91583C3.83379 10.8042 3.64572 13.2745 4.68015 15.3434L4.77473 15.5325C5.83729 17.6576 8.0093 19 10.3852 19Z" fill="#EEBBA5" fill-opacity="0.5"/>
<path d="M5.09082 28.7576L9.27264 21.0909M23.212 28.7576L19.0302 21.0909" stroke="#EEBBA5" stroke-opacity="0.5" stroke-width="1.74242" stroke-linecap="round"/>
<path d="M8.57568 14.1212C10.4343 15.2528 15.406 16.5901 20.4242 14.1212" stroke="white" stroke-width="1.04545" stroke-linecap="round"/>
</g>
<defs>
<clipPath id="clip0">
<rect width="30" height="30" fill="white"/>
</clipPath>
</defs>
</svg>
