<svg width="14" height="14" viewBox="0 0 14 14" fill="none" xmlns="http://www.w3.org/2000/svg">
<path fill-rule="evenodd" clip-rule="evenodd" d="M7 2.04175C4.26592 2.04175 2.04167 4.266 2.04167 7.00008C2.04167 9.73417 4.26592 11.9584 7 11.9584C9.73408 11.9584 11.9583 9.73417 11.9583 7.00008C11.9583 4.266 9.73408 2.04175 7 2.04175ZM7 12.8334C3.7835 12.8334 1.16667 10.2166 1.16667 7.00008C1.16667 3.78358 3.7835 1.16675 7 1.16675C10.2165 1.16675 12.8333 3.78358 12.8333 7.00008C12.8333 10.2166 10.2165 12.8334 7 12.8334Z" fill="#252525"/>
<path fill-rule="evenodd" clip-rule="evenodd" d="M9.00153 9.15408C8.92512 9.15408 8.84812 9.13424 8.77753 9.09283L6.57837 7.78091C6.44653 7.70158 6.36487 7.55866 6.36487 7.40466V4.57666C6.36487 4.33516 6.56087 4.13916 6.80237 4.13916C7.04445 4.13916 7.23987 4.33516 7.23987 4.57666V7.15616L9.22612 8.34033C9.4332 8.46458 9.50145 8.73291 9.37778 8.94058C9.29553 9.07766 9.15028 9.15408 9.00153 9.15408Z" fill="#252525"/>
</svg>
