<svg width="29" height="27" viewBox="0 0 29 27" fill="none" xmlns="http://www.w3.org/2000/svg">
<path fill-rule="evenodd" clip-rule="evenodd" d="M12.1525 27H26.6878L27.4232 24.5836C27.512 24.2918 27.2937 23.9972 26.9887 23.9972C26.6734 23.9972 26.453 23.6857 26.5558 23.3875C29.1187 15.954 31.4217 1.79865 21.4655 0.105432C19.6971 -0.120326 16.0353 -0.105348 13.816 1.41047C13.2109 1.82375 12.4393 1.98412 11.7313 1.79542C10.5339 1.4763 9.34153 1.67218 8.32288 3.28231C7.76566 4.16308 7.30496 6.01644 6.8365 7.90095C6.1708 10.579 4.88018 14.1904 3.88398 14.2925C2.99746 14.3835 2.14929 14.0094 1.45332 13.7226C0.894846 13.4924 0.334819 13.8012 0.106558 14.3604C-0.168432 15.0341 0.119516 15.819 0.813377 16.0383C2.08664 16.4407 3.54285 16.5565 5.01546 16.1638C5.74459 15.9694 6.60561 15.048 7.34593 14.0589C8.0439 13.1264 9.34181 12.4916 10.4633 12.8062C11.0963 12.9838 12.2408 13.5485 12.3286 14.2C12.6136 16.3141 12.9872 20.4368 13.2103 23.1025C13.2507 23.5849 12.8695 23.9972 12.3854 23.9972C11.8334 23.9972 11.4356 24.5266 11.5893 25.0568L12.1525 27ZM20.0729 14.9888C17.8384 15.0476 17.1227 19.3109 16.9978 22.4264C16.9628 23.2996 17.6804 23.9972 18.5543 23.9972H20.7531C21.5597 23.9972 22.2457 23.4016 22.3084 22.5975C22.5565 19.4166 22.3546 14.9288 20.0729 14.9888Z" fill="white"/>
<path fill-rule="evenodd" clip-rule="evenodd" d="M12.1525 27H26.6878L27.4232 24.5836C27.512 24.2918 27.2937 23.9972 26.9887 23.9972C26.6734 23.9972 26.453 23.6857 26.5558 23.3875C29.1187 15.954 31.4217 1.79865 21.4655 0.105432C19.6971 -0.120326 16.0353 -0.105348 13.816 1.41047C13.2109 1.82375 12.4393 1.98412 11.7313 1.79542C10.5339 1.4763 9.34153 1.67218 8.32288 3.28231C7.76566 4.16308 7.30496 6.01644 6.8365 7.90095C6.1708 10.579 4.88018 14.1904 3.88398 14.2925C2.99746 14.3835 2.14929 14.0094 1.45332 13.7226C0.894846 13.4924 0.334819 13.8012 0.106558 14.3604C-0.168432 15.0341 0.119516 15.819 0.813377 16.0383C2.08664 16.4407 3.54285 16.5565 5.01546 16.1638C5.74459 15.9694 6.60561 15.048 7.34593 14.0589C8.0439 13.1264 9.34181 12.4916 10.4633 12.8062C11.0963 12.9838 12.2408 13.5485 12.3286 14.2C12.6136 16.3141 12.9872 20.4368 13.2103 23.1025C13.2507 23.5849 12.8695 23.9972 12.3854 23.9972C11.8334 23.9972 11.4356 24.5266 11.5893 25.0568L12.1525 27ZM20.0729 14.9888C17.8384 15.0476 17.1227 19.3109 16.9978 22.4264C16.9628 23.2996 17.6804 23.9972 18.5543 23.9972H20.7531C21.5597 23.9972 22.2457 23.4016 22.3084 22.5975C22.5565 19.4166 22.3546 14.9288 20.0729 14.9888Z" fill="#EEBBA5" fill-opacity="0.5"/>
</svg>
