<svg width="11" height="14" viewBox="0 0 11 14" fill="none" xmlns="http://www.w3.org/2000/svg">
<path d="M10.5328 5.82654C10.2295 5.14382 9.78851 4.53104 9.2375 4.02654L8.78281 3.60936C8.76737 3.59558 8.74879 3.5858 8.72869 3.58088C8.7086 3.57597 8.6876 3.57606 8.66754 3.58115C8.64749 3.58624 8.62899 3.59617 8.61367 3.61008C8.59835 3.62399 8.58668 3.64145 8.57969 3.66092L8.37656 4.24373C8.25 4.60936 8.01719 4.98279 7.6875 5.34998C7.66563 5.37342 7.64063 5.37967 7.62344 5.38123C7.60625 5.38279 7.57969 5.37967 7.55625 5.35779C7.53437 5.33904 7.52344 5.31092 7.525 5.28279C7.58281 4.34217 7.30156 3.28123 6.68594 2.12654C6.17656 1.16717 5.46875 0.418731 4.58437 -0.103144L3.93906 -0.482831C3.85469 -0.532831 3.74688 -0.467206 3.75156 -0.368769L3.78594 0.381231C3.80937 0.893731 3.75 1.34686 3.60938 1.72342C3.4375 2.18436 3.19062 2.61248 2.875 2.99686C2.65535 3.26399 2.40639 3.5056 2.13281 3.71717C1.47391 4.22368 0.938146 4.87269 0.565625 5.61561C0.194022 6.365 0.000453376 7.19007 0 8.02654C0 8.76404 0.145312 9.47811 0.432812 10.1515C0.710416 10.7999 1.11103 11.3884 1.6125 11.8844C2.11875 12.3844 2.70625 12.7781 3.36094 13.0515C4.03906 13.3359 4.75781 13.4797 5.5 13.4797C6.24219 13.4797 6.96094 13.3359 7.63906 13.0531C8.29214 12.7813 8.88601 12.3848 9.3875 11.8859C9.89375 11.3859 10.2906 10.8015 10.5672 10.1531C10.8543 9.48151 11.0015 8.75848 11 8.02811C11 7.26561 10.8438 6.52498 10.5328 5.82654Z" fill="#EEBBA5"/>
</svg>
