<svg width="12" height="13" viewBox="0 0 12 13" fill="none" xmlns="http://www.w3.org/2000/svg">
<path d="M10.7401 5.64146C10.4493 4.98697 10.0266 4.39953 9.49835 3.91589L9.06247 3.51596C9.04767 3.50275 9.02985 3.49338 9.01059 3.48866C8.99132 3.48395 8.97119 3.48404 8.95197 3.48892C8.93274 3.4938 8.91501 3.50332 8.90032 3.51666C8.88564 3.52999 8.87445 3.54672 8.86774 3.56539L8.67302 4.1241C8.55169 4.47461 8.3285 4.8326 8.01245 5.1846C7.99148 5.20707 7.96751 5.21306 7.95104 5.21456C7.93456 5.21606 7.90909 5.21306 7.88663 5.19209C7.86566 5.17412 7.85517 5.14716 7.85667 5.12019C7.91209 4.21847 7.64247 3.2014 7.0523 2.09447C6.56399 1.17476 5.88545 0.457277 5.03765 -0.0430168L4.41902 -0.407003C4.33814 -0.454935 4.23478 -0.392024 4.23928 -0.297657L4.27223 0.421328C4.2947 0.912634 4.23778 1.34702 4.10297 1.70801C3.9382 2.14989 3.70153 2.56031 3.39896 2.92879C3.18839 3.18487 2.94973 3.4165 2.68747 3.61931C2.05582 4.10488 1.5422 4.72705 1.18509 5.43924C0.828851 6.15765 0.643287 6.9486 0.642853 7.75048C0.642853 8.45748 0.782156 9.14202 1.05777 9.78761C1.32389 10.4092 1.70794 10.9733 2.18867 11.4488C2.67399 11.9281 3.23719 12.3056 3.8648 12.5677C4.51489 12.8403 5.20391 12.9781 5.91541 12.9781C6.6269 12.9781 7.31593 12.8403 7.96601 12.5692C8.59208 12.3086 9.1614 11.9285 9.64215 11.4503C10.1275 10.9709 10.5079 10.4107 10.7731 9.7891C11.0482 9.14528 11.1894 8.45215 11.188 7.75198C11.188 7.02101 11.0382 6.31101 10.7401 5.64146Z" fill="#EEBBA5"/>
</svg>
