<svg width="30" height="30" viewBox="0 0 30 30" fill="none" xmlns="http://www.w3.org/2000/svg">
<path d="M6.399 9.87427C6.79744 10.012 7.04177 10.4127 6.98201 10.8299L5.24295 22.9459C6.55838 23.4616 7.85857 23.8752 9.14939 24.1875C9.14939 19.815 12.5184 16.9852 16.1613 16.9852C18.0381 16.9852 19.8023 17.7124 21.13 19.0325C22.3552 20.2518 23.073 21.8409 23.1767 23.5459C24.4248 23.1317 25.6822 22.6225 26.9537 22.0184L25.4853 11.9086C25.4173 11.4434 25.0084 11.0924 24.5332 11.0924H15.9785C15.4851 11.0924 15.0923 10.6863 15.0996 10.2001C15.2016 3.45491 13.1748 1.43185 10.5863 0.2854C10.2866 0.152627 9.95259 0.385596 9.97163 0.712842L10.0687 2.38007C10.1051 2.7996 9.91697 3.21034 9.57244 3.45819C9.42806 3.56208 9.79421 3.41606 3.75115 5.56522C2.72312 5.93167 2.29826 7.14175 2.86404 8.01972C3.51859 9.03034 4.36281 9.17214 6.399 9.87427Z" fill="white"/>
<path d="M6.399 9.87427C6.79744 10.012 7.04177 10.4127 6.98201 10.8299L5.24295 22.9459C6.55838 23.4616 7.85857 23.8752 9.14939 24.1875C9.14939 19.815 12.5184 16.9852 16.1613 16.9852C18.0381 16.9852 19.8023 17.7124 21.13 19.0325C22.3552 20.2518 23.073 21.8409 23.1767 23.5459C24.4248 23.1317 25.6822 22.6225 26.9537 22.0184L25.4853 11.9086C25.4173 11.4434 25.0084 11.0924 24.5332 11.0924H15.9785C15.4851 11.0924 15.0923 10.6863 15.0996 10.2001C15.2016 3.45491 13.1748 1.43185 10.5863 0.2854C10.2866 0.152627 9.95259 0.385596 9.97163 0.712842L10.0687 2.38007C10.1051 2.7996 9.91697 3.21034 9.57244 3.45819C9.42806 3.56208 9.79421 3.41606 3.75115 5.56522C2.72312 5.93167 2.29826 7.14175 2.86404 8.01972C3.51859 9.03034 4.36281 9.17214 6.399 9.87427Z" fill="#EEBBA5" fill-opacity="0.5"/>
<path d="M0 23.2882V26.1699C0 26.3732 0.118418 26.5573 0.30252 26.6436C9.14918 30.7894 20.8315 30.7894 29.6971 26.6429C29.8814 26.5567 30 26.3725 30 26.169V23.3026C30 22.9099 29.5825 22.6582 29.235 22.8412C19.8052 27.8084 10.8062 28.0609 0.762363 22.8254C0.415312 22.6445 0 22.8968 0 23.2882H0Z" fill="white"/>
<path d="M0 23.2882V26.1699C0 26.3732 0.118418 26.5573 0.30252 26.6436C9.14918 30.7894 20.8315 30.7894 29.6971 26.6429C29.8814 26.5567 30 26.3725 30 26.169V23.3026C30 22.9099 29.5825 22.6582 29.235 22.8412C19.8052 27.8084 10.8062 28.0609 0.762363 22.8254C0.415312 22.6445 0 22.8968 0 23.2882H0Z" fill="#EEBBA5" fill-opacity="0.5"/>
</svg>
