<svg width="29" height="23" viewBox="0 0 29 23" fill="none" xmlns="http://www.w3.org/2000/svg">
<path d="M19.7545 1.12935C19.1015 0.262009 15.9794 0.015058 14.5 0C13.0206 0.015058 9.89851 0.262009 9.24553 1.12935C8.64591 1.92581 3.35459 9.10649 0.149997 13.4579C-0.220795 13.9614 0.132433 14.6275 0.808402 14.6823C4.28217 14.9643 10.188 15.2112 14.5 15.1333C18.812 15.2112 24.7178 14.9643 28.1916 14.6823C28.8676 14.6275 29.2208 13.9614 28.85 13.4579C25.6454 9.10649 20.3541 1.92581 19.7545 1.12935Z" fill="white"/>
<path d="M19.7545 1.12935C19.1015 0.262009 15.9794 0.015058 14.5 0C13.0206 0.015058 9.89851 0.262009 9.24553 1.12935C8.64591 1.92581 3.35459 9.10649 0.149997 13.4579C-0.220795 13.9614 0.132433 14.6275 0.808402 14.6823C4.28217 14.9643 10.188 15.2112 14.5 15.1333C18.812 15.2112 24.7178 14.9643 28.1916 14.6823C28.8676 14.6275 29.2208 13.9614 28.85 13.4579C25.6454 9.10649 20.3541 1.92581 19.7545 1.12935Z" fill="#EEBBA5" fill-opacity="0.5"/>
<path d="M18.7852 19.4119C17.918 19.0505 17.2038 18.5988 17.1527 17.9212C17.1017 17.2435 18.173 17.4242 18.173 16.837C18.173 16.3672 16.5746 16.4304 15.7754 16.5208C15.4857 16.25 15.0042 15.4076 15.2646 14.1235C15.2877 14.0091 15.191 13.9007 15.0598 13.9007H14.0933C13.9621 13.9007 13.8653 14.0091 13.8885 14.1235C14.1488 15.4076 13.6673 16.25 13.3777 16.5208C12.5785 16.4304 10.98 16.3672 10.98 16.837C10.98 17.4242 12.0513 17.2435 12.0003 17.9212C11.9493 18.5988 11.2351 19.0505 10.3678 19.4119C9.47441 19.8368 9.10684 20.8271 9.0441 22.0546C9.01702 22.5845 9.46499 23 9.99559 23H19.1574C19.688 23 20.136 22.5845 20.1089 22.0546C20.0462 20.8271 19.6786 19.8368 18.7852 19.4119Z" fill="white"/>
<path d="M18.7852 19.4119C17.918 19.0505 17.2038 18.5988 17.1527 17.9212C17.1017 17.2435 18.173 17.4242 18.173 16.837C18.173 16.3672 16.5746 16.4304 15.7754 16.5208C15.4857 16.25 15.0042 15.4076 15.2646 14.1235C15.2877 14.0091 15.191 13.9007 15.0598 13.9007H14.0933C13.9621 13.9007 13.8653 14.0091 13.8885 14.1235C14.1488 15.4076 13.6673 16.25 13.3777 16.5208C12.5785 16.4304 10.98 16.3672 10.98 16.837C10.98 17.4242 12.0513 17.2435 12.0003 17.9212C11.9493 18.5988 11.2351 19.0505 10.3678 19.4119C9.47441 19.8368 9.10684 20.8271 9.0441 22.0546C9.01702 22.5845 9.46499 23 9.99559 23H19.1574C19.688 23 20.136 22.5845 20.1089 22.0546C20.0462 20.8271 19.6786 19.8368 18.7852 19.4119Z" fill="#EEBBA5" fill-opacity="0.5"/>
</svg>
