<svg width="30" height="30" viewBox="0 0 30 30" fill="none" xmlns="http://www.w3.org/2000/svg">
<g clip-path="url(#clip0)">
<path d="M24.7059 21.1764V19.7772L19.4117 14.483L16.2478 17.647L19.7772 21.1764H24.7059Z" fill="white"/>
<path d="M24.7059 21.1764V19.7772L19.4117 14.483L16.2478 17.647L19.7772 21.1764H24.7059Z" fill="#EEBBA5" fill-opacity="0.5"/>
<path d="M24.706 8.82336H5.29419V15.5167L9.70595 11.1049L15.0001 16.3991L19.4118 11.9872L24.706 17.2814V8.82336ZM15.8824 12.3528H14.1177V10.5881H15.8824V12.3528Z" fill="white"/>
<path d="M24.706 8.82336H5.29419V15.5167L9.70595 11.1049L15.0001 16.3991L19.4118 11.9872L24.706 17.2814V8.82336ZM15.8824 12.3528H14.1177V10.5881H15.8824V12.3528Z" fill="#EEBBA5" fill-opacity="0.5"/>
<path d="M5.29419 18.0125V21.1764H17.2816L9.70595 13.6007L5.29419 18.0125Z" fill="white"/>
<path d="M5.29419 18.0125V21.1764H17.2816L9.70595 13.6007L5.29419 18.0125Z" fill="#EEBBA5" fill-opacity="0.5"/>
<path d="M3.52941 21.6933V8.30663L0 4.77722V25.2228L3.52941 21.6933Z" fill="white"/>
<path d="M3.52941 21.6933V8.30663L0 4.77722V25.2228L3.52941 21.6933Z" fill="#EEBBA5" fill-opacity="0.5"/>
<path d="M25.2227 22.941H4.77722L1.2478 26.4705H28.7522L25.2227 22.941Z" fill="white"/>
<path d="M25.2227 22.941H4.77722L1.2478 26.4705H28.7522L25.2227 22.941Z" fill="#EEBBA5" fill-opacity="0.5"/>
<path d="M26.4707 8.30663V21.6933L30.0001 25.2228V4.77722L26.4707 8.30663Z" fill="white"/>
<path d="M26.4707 8.30663V21.6933L30.0001 25.2228V4.77722L26.4707 8.30663Z" fill="#EEBBA5" fill-opacity="0.5"/>
<path d="M28.7522 3.5293H1.2478L4.77722 7.05871H25.2227L28.7522 3.5293Z" fill="white"/>
<path d="M28.7522 3.5293H1.2478L4.77722 7.05871H25.2227L28.7522 3.5293Z" fill="#EEBBA5" fill-opacity="0.5"/>
</g>
<defs>
<clipPath id="clip0">
<rect width="30" height="30" fill="white"/>
</clipPath>
</defs>
</svg>
