<svg width="14" height="13" viewBox="0 0 14 13" fill="none" xmlns="http://www.w3.org/2000/svg">
<path d="M12.9606 4.80126L9.15743 4.24854L7.45733 0.801907C7.41089 0.707541 7.3345 0.631149 7.24013 0.584714C7.00347 0.467879 6.71587 0.565242 6.59754 0.801907L4.89744 4.24854L1.09431 4.80126C0.989457 4.81624 0.893593 4.86567 0.820196 4.94056C0.731464 5.03177 0.682569 5.15446 0.684254 5.2817C0.685939 5.40893 0.738067 5.53029 0.829184 5.61911L3.5808 8.30182L2.93072 12.09C2.91547 12.1781 2.92522 12.2687 2.95887 12.3516C2.99251 12.4344 3.04869 12.5062 3.12105 12.5588C3.19341 12.6113 3.27905 12.6426 3.36825 12.6489C3.45745 12.6553 3.54665 12.6365 3.62574 12.5948L7.02743 10.8063L10.4291 12.5948C10.522 12.6442 10.6298 12.6607 10.7332 12.6427C10.9938 12.5978 11.1691 12.3506 11.1242 12.09L10.4741 8.30182L13.2257 5.61911C13.3006 5.54571 13.35 5.44985 13.365 5.34499C13.4054 5.08286 13.2227 4.84021 12.9606 4.80126Z" fill="#EEBBA5"/>
</svg>
