<svg width="14" height="14" viewBox="0 0 14 14" fill="none" xmlns="http://www.w3.org/2000/svg">
<path d="M6.23703 0.795287C6.63645 0.323855 7.36357 0.323855 7.76299 0.795287L8.26903 1.39258C8.51396 1.68166 8.90124 1.8075 9.26931 1.71759L10.0298 1.53182C10.63 1.38519 11.2183 1.81258 11.2643 2.42875L11.3226 3.20941C11.3509 3.58726 11.5902 3.91669 11.9408 4.0603L12.6653 4.35701C13.2371 4.5912 13.4618 5.28273 13.1368 5.80828L12.7251 6.47413C12.5259 6.7964 12.5259 7.20361 12.7251 7.52589L13.1368 8.19174C13.4618 8.71729 13.2371 9.40882 12.6653 9.64301L11.9408 9.93971C11.5902 10.0833 11.3509 10.4128 11.3226 10.7906L11.2643 11.5713C11.2183 12.1874 10.63 12.6148 10.0298 12.4682L9.26931 12.2824C8.90124 12.1925 8.51396 12.3184 8.26903 12.6074L7.76298 13.2047C7.36357 13.6762 6.63645 13.6762 6.23703 13.2047L5.73098 12.6074C5.48605 12.3184 5.09878 12.1925 4.7307 12.2824L3.97023 12.4682C3.36999 12.6148 2.78174 12.1874 2.7357 11.5713L2.67738 10.7906C2.64915 10.4128 2.4098 10.0833 2.05917 9.93971L1.33474 9.64301C0.762955 9.40882 0.538263 8.71729 0.863195 8.19174L1.27487 7.52589C1.47413 7.20361 1.47413 6.7964 1.27487 6.47413L0.863195 5.80828C0.538263 5.28273 0.762955 4.5912 1.33474 4.35701L2.05917 4.0603C2.4098 3.91669 2.64915 3.58726 2.67738 3.20941L2.7357 2.42875C2.78174 1.81258 3.36999 1.38519 3.97023 1.53182L4.7307 1.71759C5.09878 1.8075 5.48606 1.68166 5.73098 1.39258L6.23703 0.795287Z" fill="#EEBBA5"/>
</svg>
