<svg width="138" height="34" viewBox="0 0 138 34" fill="none" xmlns="http://www.w3.org/2000/svg">
<path d="M52.8603 0.210938L66.4129 33.1394H56.6375L54.2593 27.2287H42.98L40.6017 33.1394H31.0187L44.5364 0.210938H52.8603ZM45.6556 20.1988H51.5662L48.6109 10.9481L45.6556 20.1988ZM129.664 33.1394H137.936V0.210938H129.664V33.1394ZM111.023 0.210938C121.253 0.210938 128.65 7.08341 128.65 16.579V16.6664C128.65 26.2144 121.253 33.1219 111.023 33.1219H97.9423V0.210938H111.023ZM106.231 25.6199H111.023C116.391 25.6199 120.029 22.0874 120.029 16.7713V16.6664C120.029 11.3328 116.391 7.71295 111.023 7.71295H106.231V25.6199ZM95.1269 11.4028C95.1269 16.1593 92.8011 19.6917 88.5867 21.5104L96.6308 33.1918H86.9079L80.0704 23.0667H75.5237V33.1918H67.2348V0.245912H82.5011C86.6631 0.245912 90.0031 1.41755 92.224 3.63843C94.1301 5.52705 95.1269 8.18511 95.1269 11.3328V11.4028ZM75.5237 15.5997H82.0115C85.0018 15.5997 86.7505 14.1482 86.7505 11.735V11.6301C86.7505 8.39495 84.0924 7.71295 81.8716 7.71295H75.5237V15.5997ZM30.3018 0.210938V33.1394H23.3768L8.86245 14.2007V33.1394H0.66095V0.210938H8.07553L22.1178 18.5201V0.210938H30.3018Z" fill="#1D1D1B"/>
</svg>
