<svg width="109" height="112" viewBox="0 0 109 112" fill="none" xmlns="http://www.w3.org/2000/svg">
<g opacity="0.2">
<path d="M54.5363 103.069C28.5389 103.069 7.33441 82.0374 7.33441 56.2521C7.33441 30.4669 28.5389 9.43542 54.5363 9.43542C80.5336 9.43542 101.738 30.4669 101.738 56.2521C101.738 82.1094 80.6062 103.069 54.5363 103.069Z" fill="white"/>
<path d="M54.5363 100.836C29.7734 100.836 9.58557 80.8129 9.58557 56.2521C9.58557 31.6914 29.7734 11.6682 54.5363 11.6682C79.2991 11.6682 99.487 31.6914 99.487 56.2521C99.487 80.8849 79.2991 100.836 54.5363 100.836Z" fill="#010202"/>
<path d="M23.3104 55.3879L24.1818 61.5101H24.8354C24.908 61.294 24.9806 61.0779 25.0533 60.8619C25.1985 60.6458 25.4164 60.5737 25.7068 60.5737C25.8521 60.5737 26.433 60.7178 27.377 61.0779C28.3211 61.4381 29.2651 61.5821 30.2092 61.5821C32.0246 61.5821 33.477 61.0779 34.5663 60.0696C35.7281 59.0612 36.3091 57.8368 36.3091 56.3242C36.3091 55.1718 36.0186 54.2355 35.3651 53.4432C34.7115 52.6509 33.6222 51.7146 32.0246 50.7783L29.483 49.1937C28.5389 48.6175 27.8128 48.0413 27.377 47.5371C26.9413 47.0329 26.7235 46.3847 26.7235 45.6644C26.7235 44.8721 27.014 44.2239 27.5949 43.7197C28.1758 43.2876 28.902 42.9995 29.6282 42.9995C30.6449 42.9995 31.6615 43.3596 32.6782 44.0799C33.6948 44.8001 34.4936 46.0966 34.9293 47.8972H35.6555L35.002 41.775H34.421C34.3484 42.0631 34.2758 42.3512 34.1305 42.4953C33.9853 42.6393 33.7675 42.7834 33.4044 42.7834C33.2591 42.7834 32.7508 42.6393 31.8068 42.2792C30.8627 41.9911 30.0639 41.775 29.4104 41.775C27.8128 41.775 26.5056 42.2792 25.5616 43.2155C24.6176 44.1519 24.1092 45.3763 24.1092 46.8168C24.1092 47.8972 24.5449 48.9056 25.3437 49.8419C25.7794 50.3461 26.3604 50.7782 27.0866 51.2824L29.5556 52.795C31.008 53.6593 31.8794 54.3075 32.3151 54.7397C32.9687 55.4599 33.3317 56.2522 33.3317 57.1885C33.3317 58.1969 32.9687 59.0612 32.3151 59.6374C31.6615 60.2136 30.8627 60.5017 29.9187 60.5017C28.2485 60.5017 26.7961 59.8535 25.6342 58.485C24.9806 57.6927 24.3997 56.6844 23.8914 55.3879H23.3104ZM37.9067 61.15H44.8054V60.7898C43.8614 60.7178 43.2804 60.5737 43.0626 60.2856C42.7721 59.9975 42.6995 59.3493 42.6995 58.2689V48.1853V47.9692C42.6269 47.9692 42.4816 48.0413 42.1912 48.1133C41.5376 48.4014 40.3757 48.7615 38.7781 49.3377L38.1972 49.5538V49.986C38.6329 49.8419 38.9233 49.7699 39.0686 49.7699C39.1412 49.7699 39.2864 49.7699 39.3591 49.7699C39.7948 49.7699 40.0852 49.986 40.2305 50.3461C40.3031 50.5622 40.3757 50.9943 40.3757 51.6426V58.341C40.3757 59.4213 40.2305 60.0696 40.0126 60.3577C39.7221 60.5738 39.1412 60.7898 38.1245 60.8619V61.15H37.9067ZM39.7222 43.0715C39.7222 43.5037 39.8674 43.7918 40.1579 44.0799C40.4483 44.368 40.8114 44.512 41.1745 44.512C41.6102 44.512 41.9007 44.368 42.1912 44.0799C42.4816 43.7918 42.6269 43.4316 42.6269 43.0715C42.6269 42.6393 42.4816 42.3512 42.1912 42.0631C41.9007 41.775 41.5376 41.631 41.1745 41.631C40.7388 41.631 40.3757 41.775 40.1579 42.0631C39.8674 42.3512 39.7222 42.7114 39.7222 43.0715ZM51.1958 48.0413C49.3804 48.0413 47.928 48.6895 46.8387 50.058C45.7495 51.4265 45.1685 53.011 45.1685 54.8837C45.1685 56.6123 45.6768 58.1249 46.6209 59.4934C47.5649 60.7898 48.9447 61.5101 50.6875 61.5101C52.2125 61.5101 53.5196 61.0059 54.6089 59.9975C55.6982 58.9892 56.4243 57.9088 56.7874 56.6844L56.2791 56.5403C55.6982 57.4766 55.0446 58.1969 54.391 58.7011C53.7375 59.2053 52.8661 59.4934 51.922 59.4934C50.6875 59.4934 49.6709 58.9892 48.7268 57.9808C47.8554 56.9725 47.3471 55.3879 47.2744 53.2271H56.2065C56.2065 51.5705 55.6982 50.2741 54.6815 49.3377C53.6649 48.4734 52.503 48.0413 51.1958 48.0413ZM50.3244 49.0496C51.4137 49.0496 52.2125 49.4818 52.6482 50.2741C52.8661 50.7062 53.0839 51.4265 53.1565 52.3628H47.2018C47.3471 51.5705 47.5649 50.9943 47.8554 50.4901C48.4363 49.5538 49.3078 49.0496 50.3244 49.0496ZM58.0219 61.294H58.385C58.4577 61.15 58.5303 61.0779 58.6029 61.0059C58.6755 60.9339 58.8208 60.8619 58.8934 60.8619C59.0386 60.8619 59.4743 60.9339 60.1279 61.15C60.8541 61.366 61.5076 61.4381 62.016 61.4381C63.3231 61.4381 64.4124 61.0779 65.2838 60.3577C66.0826 59.6374 66.5183 58.7731 66.5183 57.6207C66.5183 56.1802 65.5016 54.9557 63.5409 53.8033L61.7255 52.939C60.4184 52.2908 59.7648 51.4985 59.7648 50.6342C59.7648 50.058 59.9826 49.6258 60.3457 49.1937C60.7088 48.7615 61.2172 48.6175 61.8707 48.6175C62.96 48.6175 63.8314 49.0496 64.4124 49.986C64.7028 50.4901 64.9933 51.2104 65.1385 52.0747H65.5742L65.5016 48.1853H65.1385C65.0659 48.2574 64.9933 48.3294 64.9207 48.4014C64.8481 48.4734 64.7028 48.4734 64.5576 48.4734C64.485 48.4734 64.1219 48.4014 63.5409 48.1853C62.96 47.9692 62.379 47.8972 61.8707 47.8972C60.7088 47.8972 59.7648 48.2574 59.0386 48.9056C58.3124 49.5538 57.8767 50.4181 57.8767 51.4985C57.8767 52.3628 58.1672 53.0831 58.6755 53.7313C59.2565 54.3795 60.0553 54.9557 61.2172 55.604L62.8148 56.4683C63.3957 56.8284 63.8314 57.1885 64.0493 57.5487C64.2671 57.9088 64.4124 58.2689 64.4124 58.7011C64.4124 59.3493 64.1945 59.8535 63.8314 60.2136C63.3957 60.5737 62.8874 60.7898 62.1612 60.7898C60.9267 60.7898 59.91 60.2856 59.2565 59.2053C58.8934 58.6291 58.6029 57.8368 58.385 56.7564H57.9493V61.294H58.0219ZM71.4563 48.2573V44.8001C71.4563 44.6561 71.4563 44.584 71.4563 44.584C71.4563 44.584 71.3837 44.584 71.2385 44.584C70.1492 46.0246 69.4956 46.8889 69.2052 47.177C68.9147 47.5371 68.479 47.9692 67.8254 48.4734C67.6076 48.6895 67.4623 48.7615 67.3897 48.8336C67.3171 48.9056 67.3171 48.9776 67.3171 49.0496V49.1937L67.3897 49.2657H68.9873V57.7647C68.9873 58.7011 69.0599 59.4213 69.2778 59.9975C69.6409 61.0059 70.4397 61.4381 71.5289 61.4381C72.0373 61.4381 72.5456 61.294 73.1265 61.0059C73.7075 60.7178 74.2158 60.2857 74.6515 59.6374L74.942 59.2053L74.5789 58.9172C74.2884 59.2773 73.998 59.4934 73.7075 59.7094C73.4896 59.8535 73.1992 59.9255 72.8361 59.9255C72.1825 59.9255 71.7468 59.6374 71.5289 58.9892C71.3837 58.6291 71.3111 58.0528 71.3111 57.4046V49.3377H74.2158V48.2573H71.4563ZM75.1599 58.413C75.1599 59.2773 75.4503 59.9975 76.0313 60.5737C76.6122 61.15 77.3384 61.4381 78.1372 61.4381C78.936 61.4381 79.7348 61.222 80.6062 60.6458C81.1146 60.3577 81.6955 59.8535 82.4217 59.2773C82.4217 59.8535 82.6395 60.3577 82.93 60.7178C83.2205 61.15 83.6562 61.366 84.3098 61.366C84.8907 61.366 85.399 61.222 85.9074 60.8619C86.2705 60.6458 86.5609 60.3577 86.8514 59.9975V59.2773C86.4883 59.4934 86.2705 59.7094 86.1252 59.7815C85.98 59.8535 85.8347 59.8535 85.6169 59.8535C85.2538 59.8535 84.9633 59.6374 84.8181 59.2773C84.7455 59.0612 84.6728 58.7011 84.6728 58.1249V52.5069C84.6728 51.2824 84.5276 50.3461 84.1645 49.6979C83.511 48.5455 82.2764 47.8972 80.461 47.8972C78.8634 47.8972 77.7015 48.2573 76.9027 48.9776C76.1039 49.6979 75.6682 50.3461 75.6682 51.0664C75.6682 51.4265 75.8134 51.7146 76.0313 52.0027C76.2491 52.2908 76.6122 52.4348 76.9753 52.4348C77.2658 52.4348 77.4836 52.3628 77.7015 52.2188C78.0646 52.0027 78.2098 51.6426 78.2098 51.1384C78.2098 51.0664 78.2098 50.9223 78.1372 50.6342C78.0646 50.3461 78.0646 50.202 78.0646 50.058C78.0646 49.6258 78.2824 49.2657 78.7182 49.0496C79.1539 48.8336 79.5896 48.6895 80.0979 48.6895C81.1146 48.6895 81.7681 48.9776 82.0586 49.6258C82.2764 49.986 82.3491 50.6342 82.3491 51.6426V52.867C79.7348 53.8033 78.0646 54.5956 77.1932 55.1718C75.886 55.8921 75.1599 57.0445 75.1599 58.413ZM82.4217 57.8368C82.4217 58.341 82.1312 58.7731 81.5503 59.1332C80.9693 59.4934 80.3884 59.6374 79.7348 59.6374C79.2991 59.6374 78.8634 59.4934 78.5003 59.2773C77.9193 58.8451 77.6289 58.2689 77.6289 57.4046C77.6289 56.3242 78.2824 55.3879 79.6622 54.5956C80.3884 54.1635 81.2598 53.8033 82.3491 53.4432V57.8368H82.4217ZM37.0353 69.2168C37.0353 69.0728 37.1079 68.9287 37.1079 68.7127C37.1079 67.6323 36.5996 65.9037 34.5663 65.9037C32.8234 65.9037 31.7341 67.3442 31.7341 69.1448C31.7341 70.9455 32.8234 72.1699 34.7115 72.1699C35.6555 72.1699 36.3091 71.9538 36.7448 71.8098L36.5269 71.0175C36.0912 71.2336 35.6555 71.3056 34.8567 71.3056C33.7675 71.3056 32.8234 70.7294 32.7508 69.2168H37.0353ZM32.7508 68.4246C32.8234 67.6323 33.3317 66.6239 34.421 66.6239C35.6555 66.6239 35.946 67.7043 35.946 68.4246H32.7508ZM37.5436 66.0477L39.5769 69.0008L37.3984 72.0979H38.6329L39.5043 70.7294C39.7222 70.3692 39.94 70.0091 40.1579 69.649C40.3757 70.0091 40.5936 70.3692 40.8114 70.7294L41.6828 72.0979H42.9174L40.8114 69.0008L42.9174 66.0477H41.7555L40.884 67.3442C40.6662 67.7043 40.4483 67.9924 40.3031 68.3525H40.2305C40.0126 67.9924 39.8674 67.7043 39.6495 67.3442L38.7781 66.0477H37.5436ZM47.928 71.0175C47.6375 71.1615 47.2018 71.3056 46.5483 71.3056C45.3138 71.3056 44.4423 70.4413 44.4423 69.0728C44.4423 67.8484 45.1685 66.768 46.6209 66.768C47.2018 66.768 47.6375 66.912 47.928 67.0561L48.1459 66.1918C47.8554 66.0477 47.2744 65.9037 46.6209 65.9037C44.6602 65.9037 43.3531 67.2721 43.3531 69.0728C43.3531 70.9455 44.515 72.1699 46.403 72.1699C47.2018 72.1699 47.8554 71.9538 48.1459 71.8098L47.928 71.0175ZM49.3078 72.0258H50.397V63.2387H49.3078V72.0258ZM57.2232 66.0477H56.1339V69.721C56.1339 69.9371 56.0613 70.1532 56.0613 70.2972C55.8434 70.8014 55.3351 71.3056 54.6089 71.3056C53.5922 71.3056 53.2291 70.5133 53.2291 69.3609V66.0477H52.1399V69.577C52.1399 71.6657 53.3018 72.2419 54.2458 72.2419C55.3351 72.2419 55.9886 71.5937 56.2791 71.0895L56.3517 72.0979H57.2958C57.2232 71.5937 57.2232 71.0895 57.2232 70.4413V66.0477ZM58.5303 71.7377C58.966 71.9538 59.5469 72.1699 60.2731 72.1699C61.7255 72.1699 62.5243 71.4496 62.5243 70.3692C62.5243 69.5049 62.016 68.9287 60.9267 68.5686C60.1279 68.2805 59.7648 68.0644 59.7648 67.5602C59.7648 67.1281 60.1279 66.768 60.7814 66.768C61.3624 66.768 61.7981 66.984 62.016 67.1281L62.3064 66.3358C61.9433 66.1197 61.435 65.9757 60.7814 65.9757C59.4743 65.9757 58.6755 66.768 58.6755 67.7763C58.6755 68.4966 59.1838 69.0728 60.2731 69.5049C61.0719 69.793 61.435 70.0811 61.435 70.5853C61.435 71.0895 61.0719 71.4496 60.2731 71.4496C59.6922 71.4496 59.1112 71.2336 58.8208 71.0175L58.5303 71.7377ZM64.4124 63.6709C63.9766 63.6709 63.6862 63.959 63.6862 64.3911C63.6862 64.7512 63.9766 65.0393 64.3397 65.0393C64.7754 65.0393 65.0659 64.7512 65.0659 64.3911C65.0659 63.959 64.7754 63.6709 64.4124 63.6709ZM64.9207 66.0477H63.8314V72.0979H64.9207V66.0477ZM65.9373 66.0477L68.2611 72.0258H69.3504L71.7468 65.9757H70.5849L69.423 69.3609C69.2052 69.9371 69.0599 70.4413 68.9147 70.8734H68.8421C68.6968 70.3693 68.5516 69.8651 68.3337 69.3609L67.1718 65.9757H65.9373V66.0477ZM77.3384 69.2168C77.3384 69.0728 77.411 68.9287 77.411 68.7127C77.411 67.6323 76.9027 65.9037 74.8694 65.9037C73.1265 65.9037 72.0373 67.3442 72.0373 69.1448C72.0373 70.9455 73.1265 72.1699 75.0146 72.1699C75.9587 72.1699 76.6848 71.9538 77.0479 71.8098L76.8301 71.0175C76.3944 71.1615 75.9587 71.3056 75.1599 71.3056C74.0706 71.3056 73.1265 70.7294 73.0539 69.2168H77.3384ZM73.1265 68.4246C73.1992 67.6323 73.7075 66.6239 74.7968 66.6239C76.0313 66.6239 76.3218 67.7043 76.3218 68.4246H73.1265Z" fill="white"/>
</g>
</svg>
