<svg width="164" height="19" viewBox="0 0 164 19" fill="none" xmlns="http://www.w3.org/2000/svg">
<g clip-path="url(#clip0)">
<path fill-rule="evenodd" clip-rule="evenodd" d="M160.762 4.19795C160.897 4.19233 161.03 4.15879 161.151 4.09946C161.273 4.04014 161.38 3.95633 161.467 3.85338C161.561 3.75799 161.635 3.64524 161.684 3.52158C161.734 3.39792 161.758 3.26576 161.757 3.13266C161.759 2.91867 161.7 2.70841 161.586 2.5268C161.483 2.35364 161.325 2.21859 161.138 2.14203C160.873 2.05985 160.597 2.0239 160.32 2.03579H158.799V6.05574H159.34V4.26973H160.207L161.21 6.05574H161.887L160.762 4.19795ZM159.316 3.80457V2.47511H160.317C160.552 2.45593 160.785 2.52115 160.976 2.65888C161.043 2.71767 161.096 2.79032 161.131 2.87169C161.167 2.95305 161.184 3.04116 161.181 3.12979C161.185 3.2577 161.148 3.38346 161.074 3.48871C161 3.6033 160.887 3.68856 160.756 3.72991C160.569 3.78702 160.374 3.81226 160.178 3.80457H159.316Z" fill="#0E0E0E"/>
<path fill-rule="evenodd" clip-rule="evenodd" d="M160.117 0.183717C159.349 0.183149 158.597 0.409001 157.958 0.832705C157.318 1.25641 156.82 1.85893 156.525 2.56404C156.231 3.26916 156.153 4.0452 156.303 4.79399C156.453 5.54278 156.823 6.23068 157.366 6.77068C157.909 7.31068 158.601 7.67852 159.355 7.82765C160.109 7.97679 160.891 7.90054 161.601 7.60853C162.311 7.31653 162.918 6.82189 163.345 6.1872C163.772 5.5525 164 4.80626 164 4.04287C164 3.53621 163.9 3.03445 163.705 2.56625C163.51 2.09805 163.224 1.6726 162.864 1.31421C162.503 0.955817 162.075 0.671509 161.604 0.477533C161.133 0.283557 160.627 0.183717 160.117 0.183717ZM160.117 7.25021C159.478 7.25021 158.854 7.06203 158.323 6.70948C157.792 6.35692 157.378 5.85583 157.133 5.2696C156.889 4.68337 156.825 4.03833 156.95 3.41609C157.075 2.79385 157.383 2.22236 157.835 1.77392C158.287 1.32548 158.862 1.02023 159.489 0.896801C160.116 0.77337 160.765 0.837296 161.355 1.08049C161.945 1.32369 162.449 1.73523 162.804 2.26305C163.158 2.79087 163.347 3.41126 163.347 4.04574C163.347 4.89489 163.008 5.70939 162.404 6.31063C161.8 6.91188 160.981 7.2508 160.126 7.25308" fill="#0E0E0E"/>
<path d="M75.4054 19C75.2095 18.9996 75.0156 18.9609 74.8347 18.8861C74.6539 18.8113 74.4896 18.7019 74.3514 18.564C74.2131 18.4262 74.1036 18.2626 74.0289 18.0827C73.9543 17.9028 73.9161 17.7101 73.9165 17.5155V1.48166C73.9076 1.28217 73.9395 1.08297 74.0103 0.896068C74.0811 0.709164 74.1892 0.538428 74.3282 0.394157C74.4672 0.249886 74.6342 0.135068 74.819 0.056626C75.0039 -0.0218157 75.2029 -0.0622559 75.4039 -0.0622559C75.605 -0.0622559 75.804 -0.0218157 75.9888 0.056626C76.1737 0.135068 76.3407 0.249886 76.4797 0.394157C76.6187 0.538428 76.7268 0.709164 76.7976 0.896068C76.8683 1.08297 76.9003 1.28217 76.8914 1.48166V17.5155C76.8914 17.908 76.7346 18.2844 76.4555 18.5622C76.1763 18.84 75.7976 18.9964 75.4025 18.9972" fill="#0E0E0E"/>
<path d="M104.594 18.6785H84.9056C84.3369 18.6777 83.7917 18.453 83.3895 18.0536C82.9874 17.6542 82.7611 17.1127 82.7604 16.5479V2.44649C82.7611 1.88166 82.9874 1.34018 83.3895 0.940787C83.7917 0.541392 84.3369 0.316678 84.9056 0.315918H104.594C113.785 0.315918 114.779 6.73635 114.779 9.50437C114.779 12.1432 113.912 14.3857 112.296 15.9995C110.495 17.7826 107.904 18.6871 104.597 18.6871L104.594 18.6785ZM85.7382 15.7238H104.597C109.246 15.7238 111.804 13.5128 111.804 9.49576C111.804 5.36382 109.379 3.27058 104.597 3.27058H85.7382V15.7238Z" fill="#0E0E0E"/>
<path d="M66.3361 18.6784H40.7644C39.5819 18.6784 38.6192 18.1242 38.6192 16.2377V1.48739C38.6103 1.28791 38.6422 1.08871 38.713 0.901805C38.7838 0.714901 38.8919 0.544166 39.0309 0.399894C39.1699 0.255623 39.3369 0.140805 39.5217 0.0623633C39.7066 -0.0160784 39.9056 -0.0565186 40.1067 -0.0565186C40.3077 -0.0565186 40.5067 -0.0160784 40.6916 0.0623633C40.8764 0.140805 41.0434 0.255623 41.1824 0.399894C41.3214 0.544166 41.4295 0.714901 41.5003 0.901805C41.5711 1.08871 41.603 1.28791 41.5941 1.48739V15.7238H66.3216C66.5225 15.715 66.723 15.7467 66.9112 15.8169C67.0994 15.8872 67.2713 15.9946 67.4166 16.1327C67.5618 16.2707 67.6774 16.4365 67.7564 16.6202C67.8354 16.8038 67.8761 17.0014 67.8761 17.2011C67.8761 17.4008 67.8354 17.5984 67.7564 17.782C67.6774 17.9656 67.5618 18.1315 67.4166 18.2695C67.2713 18.4076 67.0994 18.515 66.9112 18.5852C66.723 18.6555 66.5225 18.6872 66.3216 18.6784" fill="#0E0E0E"/>
<path d="M149.559 10.9773C149.76 10.9861 149.961 10.9543 150.15 10.8839C150.338 10.8135 150.51 10.7059 150.656 10.5676C150.802 10.4293 150.917 10.2631 150.997 10.0791C151.076 9.89516 151.116 9.69717 151.116 9.49711C151.116 9.29704 151.076 9.09906 150.997 8.91508C150.917 8.7311 150.802 8.56494 150.656 8.42662C150.51 8.28831 150.338 8.18069 150.15 8.11028C149.961 8.03986 149.76 8.0081 149.559 8.0169H122.938V3.27336H149.559C149.76 3.28217 149.961 3.25041 150.15 3.17999C150.338 3.10957 150.51 3.00196 150.656 2.86364C150.802 2.72533 150.917 2.55917 150.997 2.37519C151.076 2.19121 151.116 1.99322 151.116 1.79316C151.116 1.5931 151.076 1.39511 150.997 1.21113C150.917 1.02715 150.802 0.860995 150.656 0.722678C150.51 0.584362 150.338 0.476751 150.15 0.406334C149.961 0.335917 149.76 0.304154 149.559 0.312959H122.108C121.533 0.319776 120.985 0.552739 120.582 0.960755C120.18 1.36877 119.957 1.91853 119.963 2.48947V16.5019C119.957 17.0728 120.18 17.6226 120.582 18.0306C120.985 18.4386 121.533 18.6716 122.108 18.6784H149.559C149.954 18.6784 150.333 18.5224 150.613 18.2448C150.892 17.9672 151.049 17.5908 151.049 17.1982C151.049 16.8056 150.892 16.4291 150.613 16.1515C150.333 15.8739 149.954 15.718 149.559 15.718H122.938V10.9773H149.559Z" fill="#0E0E0E"/>
<path d="M27.3873 18.6785H1.4918C1.09654 18.6785 0.717457 18.5225 0.437961 18.2449C0.158465 17.9673 0.00144555 17.5908 0.00144555 17.1983C0.00144555 16.8057 0.158465 16.4292 0.437961 16.1516C0.717457 15.874 1.09654 15.7181 1.4918 15.7181H27.3873C28.8328 15.7181 29.8505 14.7447 29.8505 13.3492C29.8505 12.2667 29.4226 10.9803 27.3873 10.9803H5.44392C2.18856 10.9774 0 8.83534 0 5.64522C0 2.60729 2.34178 0.315918 5.44392 0.315918H29.917C30.1127 0.315918 30.3065 0.354205 30.4873 0.428592C30.6682 0.502979 30.8325 0.61201 30.9708 0.749459C31.1092 0.886909 31.219 1.05009 31.2939 1.22967C31.3688 1.40926 31.4074 1.60174 31.4074 1.79612C31.4074 1.9905 31.3688 2.18298 31.2939 2.36257C31.219 2.54216 31.1092 2.70533 30.9708 2.84278C30.8325 2.98023 30.6682 3.08926 30.4873 3.16365C30.3065 3.23804 30.1127 3.27632 29.917 3.27632H5.44392C3.99838 3.27632 2.98071 4.2526 2.98071 5.64522C2.98071 6.72774 3.4086 8.01699 5.44392 8.01699H27.3873C30.6398 8.01699 32.8254 10.159 32.8254 13.3463C32.8254 16.3842 30.4865 18.6756 27.3873 18.6756" fill="#0E0E0E"/>
</g>
<defs>
<clipPath id="clip0">
<rect width="164" height="19" fill="white"/>
</clipPath>
</defs>
</svg>
