<svg width="110" height="28" viewBox="0 0 110 28" fill="none" xmlns="http://www.w3.org/2000/svg">
<g opacity="0.2">
<path d="M41.828 0.786011L52.6879 27.172H44.8548L42.949 22.4357H33.9108L32.0051 27.172H24.3261L35.158 0.786011H41.828ZM36.0548 16.8026H40.7911L38.4229 9.38983L36.0548 16.8026ZM103.372 27.172H110V0.786011H103.372V27.172ZM88.4344 0.786011C96.6319 0.786011 102.559 6.29302 102.559 13.9019V13.972C102.559 21.623 96.6319 27.158 88.4344 27.158H77.9529V0.786011H88.4344ZM84.5949 21.1465H88.4344C92.7363 21.1465 95.651 18.3159 95.651 14.0561V13.972C95.651 9.69811 92.7363 6.79747 88.4344 6.79747H84.5949V21.1465ZM75.6968 9.75416C75.6968 13.5656 73.8331 16.3962 70.4561 17.8535L76.9019 27.214H69.1108L63.6318 19.1007H59.9885V27.214H53.3465V0.814036H65.5796C68.9146 0.814036 71.5911 1.75289 73.3707 3.53251C74.8981 5.04588 75.6968 7.17582 75.6968 9.69811V9.75416ZM59.9885 13.1172H65.1873C67.5834 13.1172 68.9847 11.9542 68.9847 10.0204V9.93633C68.9847 7.34397 66.8548 6.79747 65.0752 6.79747H59.9885V13.1172ZM23.7516 0.786011V27.172H18.2025L6.57197 11.9962V27.172H0V0.786011H5.9414L17.1936 15.4573V0.786011H23.7516Z" fill="#1D1D1B"/>
</g>
</svg>
