<svg width="43" height="44" viewBox="0 0 43 44" fill="none" xmlns="http://www.w3.org/2000/svg">
<path opacity="0.4" fill-rule="evenodd" clip-rule="evenodd" d="M14.2804 13.2197C13.9876 12.9268 13.5127 12.9268 13.2198 13.2196C12.9269 13.5125 12.9268 13.9874 13.2197 14.2803L20.5769 21.6391L13.2278 28.9882C12.9349 29.2811 12.9349 29.756 13.2278 30.0489C13.5207 30.3417 13.9956 30.3417 14.2885 30.0489L21.6375 22.6998L28.9946 30.0585C29.2875 30.3514 29.7624 30.3515 30.0553 30.0586C30.3482 29.7658 30.3483 29.2909 30.0554 28.998L22.6981 21.6392L30.0503 14.2871C30.3432 13.9942 30.3432 13.5193 30.0503 13.2264C29.7574 12.9335 29.2825 12.9335 28.9896 13.2264L21.6376 20.5784L14.2804 13.2197Z" fill="#252525"/>
</svg>
