<svg width="18" height="18" viewBox="0 0 18 18" fill="none" xmlns="http://www.w3.org/2000/svg">
<path d="M12.1289 18H4.21875C1.89253 18 0 16.1075 0 13.7812V4.21875C0 1.89253 1.89253 0 4.21875 0H13.7812C16.1075 0 18 1.89253 18 4.21875V10.4414C17.9629 11.3743 16.6306 11.3736 16.5938 10.4414V4.21875C16.5938 2.66794 15.3321 1.40625 13.7812 1.40625H4.21875C2.66794 1.40625 1.40625 2.66794 1.40625 4.21875V13.7812C1.40625 15.3321 2.66794 16.5938 4.21875 16.5938H12.1289C13.0618 16.6309 13.0611 17.9632 12.1289 18ZM11.4961 3.86719C11.4961 3.47885 11.1813 3.16406 10.793 3.16406H7.20703C6.27413 3.20119 6.27483 4.5335 7.20703 4.57031H10.793C11.1813 4.57031 11.4961 4.25552 11.4961 3.86719Z" fill="#EEBBA5"/>
<path d="M11.2852 15.4336C11.1057 15.4336 10.9261 15.3654 10.7889 15.2286L9.61858 14.0626C9.21962 13.6649 9.00004 13.1361 9 12.5736C9 12.0111 9.21962 11.4823 9.6184 11.0847C9.62026 11.0828 10.7943 9.93801 10.7943 9.93801C11.0723 9.66685 11.5175 9.67254 11.7886 9.95052C12.0597 10.2285 12.0541 10.6737 11.776 10.9448L10.6091 12.0828C10.3396 12.3429 10.3406 12.8075 10.6112 13.0665L11.7814 14.2324C12.2261 14.673 11.9029 15.4374 11.2852 15.4336ZM17.1103 17.0965C19.0229 15.1764 17.6423 11.8414 14.9238 11.8477H12.4102C11.4773 11.8848 11.478 13.2171 12.4102 13.254H14.9238C15.8446 13.254 16.5938 14.0031 16.5938 14.9239C16.5938 15.8447 15.8525 16.5938 14.9414 16.5938C14.0091 16.6305 14.0086 17.9631 14.9414 18.0001C15.7634 18.0001 16.5336 17.6791 17.1103 17.0965Z" fill="#EEBBA5"/>
</svg>
