<svg width="18" height="18" viewBox="0 0 18 18" fill="none" xmlns="http://www.w3.org/2000/svg">
<path d="M18 4.21875V7.59375C17.9629 8.52666 16.6306 8.52595 16.5938 7.59375V4.21875C16.5938 2.66794 15.3321 1.40625 13.7812 1.40625H4.21875C2.66794 1.40625 1.40625 2.66794 1.40625 4.21875V13.7812C1.40625 15.3321 2.66794 16.5938 4.21875 16.5938H7.73438C8.66728 16.6309 8.66658 17.9632 7.73438 18H4.21875C1.89253 18 0 16.1075 0 13.7812V4.21875C0 1.89253 1.89253 0 4.21875 0H13.7812C16.1075 0 18 1.89253 18 4.21875ZM11.4961 3.86719C11.4961 3.47885 11.1813 3.16406 10.793 3.16406H7.20703C6.27413 3.20119 6.27483 4.5335 7.20703 4.57031H10.793C11.1813 4.57031 11.4961 4.25552 11.4961 3.86719ZM17.2969 13.9635C16.9316 13.8319 16.5287 14.0213 16.397 14.3866C15.0732 17.871 9.97766 16.9874 9.91406 13.2539C9.88207 10.8687 12.4818 9.17068 14.6476 10.2365C15.0004 10.3987 15.4179 10.2442 15.5802 9.89146C15.7424 9.53863 15.588 9.12111 15.2352 8.95887C12.1621 7.45794 8.45982 9.8615 8.50785 13.2539C8.59838 18.5593 15.8394 19.8151 17.7199 14.8634C17.8516 14.4981 17.6622 14.0952 17.2969 13.9635Z" fill="#EEBBA5"/>
<path d="M13.7825 14.6954C13.3016 14.6954 12.8501 14.5058 12.511 14.1617L11.5204 13.1476C11.2491 12.8698 11.2543 12.4246 11.5321 12.1533C11.8099 11.882 12.2551 11.8872 12.5265 12.165L13.5149 13.177C13.6561 13.3258 13.9104 13.3255 14.052 13.1748L16.7974 10.4036C17.0706 10.1277 17.5159 10.1256 17.7917 10.3989C18.0676 10.6722 18.0697 11.1174 17.7964 11.3933L15.0524 14.1631C14.7148 14.5058 14.2633 14.6954 13.7825 14.6954Z" fill="#EEBBA5"/>
</svg>
