<svg width="18" height="18" viewBox="0 0 18 18" fill="none" xmlns="http://www.w3.org/2000/svg">
<path d="M14.7659 15.9133C14.3776 15.9133 14.0628 15.5985 14.0628 15.2102C14.0628 13.2717 12.4857 11.6946 10.5471 11.6946H0.703322C-0.229584 11.6575 -0.228881 10.3251 0.703322 10.2883H10.5471C12.9828 10.2883 15.0109 12.0668 15.4012 14.3932C16.097 14.1346 16.5939 13.4638 16.5939 12.679V9.55005C16.5939 9.16235 16.2785 8.84692 15.8908 8.84692H14.4143C13.2512 8.84692 12.3049 7.90066 12.3049 6.73755V5.61255C12.3049 4.44944 13.2512 3.50317 14.4143 3.50317C14.8026 3.50317 15.1174 3.81796 15.1174 4.2063C15.1174 4.59463 14.8026 4.90942 14.4143 4.90942C14.0266 4.90942 13.7111 5.22485 13.7111 5.61255V6.73755C13.7111 7.12525 14.0266 7.44067 14.4143 7.44067H15.8908C17.0539 7.44067 18.0002 8.38694 18.0002 9.55005V12.679C18.0002 14.4624 16.5493 15.9133 14.7659 15.9133ZM10.8986 8.17896V3.49438C10.8986 2.72383 11.5255 2.09692 12.2961 2.09692H14.133C15.49 2.09692 16.5939 3.2009 16.5939 4.55786V5.75317C16.6311 6.68608 17.9634 6.68538 18.0002 5.75317V4.55786C18.0002 2.42549 16.2654 0.690674 14.133 0.690674H12.2961C10.7501 0.690674 9.49238 1.94842 9.49238 3.49438V8.17896C9.49238 8.56729 9.80717 8.88208 10.1955 8.88208C10.5838 8.88208 10.8986 8.56729 10.8986 8.17896Z" fill="#EEBBA5"/>
<path d="M5.83594 1.32349H2.46094C1.10398 1.32349 0 2.42746 0 3.78442V6.4563C0 7.81326 1.10398 8.91724 2.46094 8.91724H5.83594C7.1929 8.91724 8.29688 7.81326 8.29688 6.4563V3.78442C8.29688 2.42746 7.1929 1.32349 5.83594 1.32349ZM6.89062 6.4563C6.89062 7.03785 6.41749 7.51099 5.83594 7.51099H2.46094C1.87938 7.51099 1.40625 7.03785 1.40625 6.4563V3.78442C1.40625 3.20287 1.87938 2.72974 2.46094 2.72974H5.83594C6.41749 2.72974 6.89062 3.20287 6.89062 3.78442V6.4563ZM5.41406 4.62817C5.41406 5.01651 5.09927 5.3313 4.71094 5.3313H3.58594C2.65303 5.29417 2.65373 3.96186 3.58594 3.92505H4.71094C5.09927 3.92505 5.41406 4.23987 5.41406 4.62817ZM10.5469 13.1008C9.38384 13.1008 8.43757 14.0471 8.43757 15.2102C8.55344 18.0086 12.5409 18.0078 12.6563 15.2102C12.6563 14.0471 11.7101 13.1008 10.5469 13.1008ZM10.5469 15.9133C10.1592 15.9133 9.84382 15.5979 9.84382 15.2102C9.88246 14.2774 11.2116 14.2777 11.2501 15.2102C11.2501 15.5979 10.9346 15.9133 10.5469 15.9133ZM6.36328 14.4719H4.08512C3.24091 12.3038 0.0425742 12.8536 0 15.2102C0.0474609 17.6088 3.32515 18.1134 4.10973 15.8782H6.36328C7.29619 15.841 7.29548 14.5087 6.36328 14.4719ZM2.10938 15.9133C1.72167 15.9133 1.40625 15.5979 1.40625 15.2102C1.44489 14.2774 2.774 14.2777 2.8125 15.2102C2.8125 15.5979 2.49708 15.9133 2.10938 15.9133Z" fill="#EEBBA5"/>
</svg>
