<svg width="18" height="18" viewBox="0 0 18 18" fill="none" xmlns="http://www.w3.org/2000/svg">
<g id="&#208;&#148;&#208;&#176;">
<g id="Tick Square">
<path id="Fill 1" fill-rule="evenodd" clip-rule="evenodd" d="M5.74875 2.625C3.85125 2.625 2.625 3.92475 2.625 5.937V12.063C2.625 14.0752 3.85125 15.375 5.74875 15.375H12.2498C14.148 15.375 15.375 14.0752 15.375 12.063V5.937C15.375 3.92475 14.148 2.625 12.2505 2.625H5.74875ZM12.2498 16.5H5.74875C3.207 16.5 1.5 14.7165 1.5 12.063V5.937C1.5 3.2835 3.207 1.5 5.74875 1.5H12.2505C14.7922 1.5 16.5 3.2835 16.5 5.937V12.063C16.5 14.7165 14.7923 16.5 12.2498 16.5Z" fill="#EEBBA5"/>
<path id="Fill 3" fill-rule="evenodd" clip-rule="evenodd" d="M8.1099 11.3423C7.96665 11.3423 7.8219 11.2875 7.7124 11.1773L5.9319 9.39752C5.71215 9.17777 5.71215 8.82227 5.9319 8.60252C6.15165 8.38277 6.50715 8.38277 6.7269 8.60252L8.1099 9.98402L11.2719 6.82277C11.4917 6.60302 11.8472 6.60302 12.0669 6.82277C12.2867 7.04252 12.2867 7.39802 12.0669 7.61777L8.5074 11.1773C8.3979 11.2875 8.2539 11.3423 8.1099 11.3423Z" fill="#EEBBA5"/>
</g>
</g>
</svg>
