<svg width="18" height="18" viewBox="0 0 18 18" fill="none" xmlns="http://www.w3.org/2000/svg">
<g id="Iconly/Light-Outline/Close Square">
<g id="Close Square">
<path id="Fill 1" fill-rule="evenodd" clip-rule="evenodd" d="M7.20184 11.3525C7.05784 11.3525 6.91384 11.2977 6.80434 11.1875C6.58459 10.9677 6.58459 10.6122 6.80434 10.3925L10.3983 6.79848C10.6181 6.57873 10.9736 6.57873 11.1933 6.79848C11.4131 7.01823 11.4131 7.37373 11.1933 7.59348L7.59934 11.1875C7.48984 11.2977 7.34584 11.3525 7.20184 11.3525Z" fill="#EEBBA5"/>
<path id="Fill 3" fill-rule="evenodd" clip-rule="evenodd" d="M10.7974 11.3546C10.6534 11.3546 10.5094 11.2999 10.3999 11.1896L6.80287 7.59189C6.58312 7.37214 6.58312 7.01664 6.80287 6.79689C7.02337 6.57714 7.37887 6.57714 7.59787 6.79689L11.1949 10.3946C11.4146 10.6144 11.4146 10.9699 11.1949 11.1896C11.0854 11.2999 10.9406 11.3546 10.7974 11.3546Z" fill="#EEBBA5"/>
<path id="Fill 5" fill-rule="evenodd" clip-rule="evenodd" d="M5.74875 2.625C3.85125 2.625 2.625 3.92475 2.625 5.937V12.063C2.625 14.0753 3.85125 15.375 5.74875 15.375H12.2498C14.148 15.375 15.375 14.0753 15.375 12.063V5.937C15.375 3.92475 14.148 2.625 12.2505 2.625H5.74875ZM12.2498 16.5H5.74875C3.207 16.5 1.5 14.7165 1.5 12.063V5.937C1.5 3.2835 3.207 1.5 5.74875 1.5H12.2505C14.7923 1.5 16.5 3.2835 16.5 5.937V12.063C16.5 14.7165 14.7923 16.5 12.2498 16.5Z" fill="#EEBBA5"/>
</g>
</g>
</svg>
