<svg width="18" height="18" viewBox="0 0 18 18" fill="none" xmlns="http://www.w3.org/2000/svg">
<path fill-rule="evenodd" clip-rule="evenodd" d="M5.34082 13.1719C5.03032 13.1719 4.77832 12.9199 4.77832 12.6094V7.46436C4.77832 7.15386 5.03032 6.90186 5.34082 6.90186C5.65132 6.90186 5.90332 7.15386 5.90332 7.46436V12.6094C5.90332 12.9199 5.65132 13.1719 5.34082 13.1719Z" fill="#130F26"/>
<path fill-rule="evenodd" clip-rule="evenodd" d="M8.84131 13.1711C8.53081 13.1711 8.27881 12.9191 8.27881 12.6086V5.00134C8.27881 4.69084 8.53081 4.43884 8.84131 4.43884C9.15181 4.43884 9.40381 4.69084 9.40381 5.00134V12.6086C9.40381 12.9191 9.15181 13.1711 8.84131 13.1711Z" fill="#130F26"/>
<path fill-rule="evenodd" clip-rule="evenodd" d="M12.2837 13.1711C11.9732 13.1711 11.7212 12.9191 11.7212 12.6086V10.1831C11.7212 9.87261 11.9732 9.62061 12.2837 9.62061C12.5942 9.62061 12.8462 9.87261 12.8462 10.1831V12.6086C12.8462 12.9191 12.5942 13.1711 12.2837 13.1711Z" fill="#130F26"/>
<path fill-rule="evenodd" clip-rule="evenodd" d="M5.298 1.875C3.219 1.875 1.875 3.29775 1.875 5.50125V12.1237C1.875 14.3272 3.219 15.75 5.298 15.75H12.327C14.4067 15.75 15.75 14.3272 15.75 12.1237V5.50125C15.75 3.29775 14.4067 1.875 12.327 1.875H5.298ZM12.327 16.875H5.298C2.57775 16.875 0.75 14.9655 0.75 12.1238V5.50125C0.75 2.6595 2.57775 0.75 5.298 0.75H12.327C15.0472 0.75 16.875 2.6595 16.875 5.50125V12.1238C16.875 14.9655 15.0472 16.875 12.327 16.875Z" fill="#130F26"/>
</svg>
