<svg width="25" height="24" viewBox="0 0 25 24" fill="none" xmlns="http://www.w3.org/2000/svg">
<path fill-rule="evenodd" clip-rule="evenodd" d="M7.99719 17.5625C7.58319 17.5625 7.24719 17.2265 7.24719 16.8125V9.95251C7.24719 9.53851 7.58319 9.20251 7.99719 9.20251C8.41119 9.20251 8.7472 9.53851 8.7472 9.95251V16.8125C8.7472 17.2265 8.41119 17.5625 7.99719 17.5625Z" fill="#252525"/>
<path fill-rule="evenodd" clip-rule="evenodd" d="M12.6642 17.5615C12.2502 17.5615 11.9142 17.2255 11.9142 16.8115V6.66852C11.9142 6.25452 12.2502 5.91852 12.6642 5.91852C13.0782 5.91852 13.4142 6.25452 13.4142 6.66852V16.8115C13.4142 17.2255 13.0782 17.5615 12.6642 17.5615Z" fill="#252525"/>
<path fill-rule="evenodd" clip-rule="evenodd" d="M17.2545 17.5615C16.8405 17.5615 16.5045 17.2255 16.5045 16.8115V13.5775C16.5045 13.1635 16.8405 12.8275 17.2545 12.8275C17.6685 12.8275 18.0045 13.1635 18.0045 13.5775V16.8115C18.0045 17.2255 17.6685 17.5615 17.2545 17.5615Z" fill="#252525"/>
<path fill-rule="evenodd" clip-rule="evenodd" d="M7.9401 2.5C5.1681 2.5 3.3761 4.397 3.3761 7.335V16.165C3.3761 19.103 5.1681 21 7.9401 21H17.3121C20.0851 21 21.8761 19.103 21.8761 16.165V7.335C21.8761 4.397 20.0851 2.5 17.3121 2.5H7.9401ZM17.3121 22.5H7.9401C4.3131 22.5 1.8761 19.954 1.8761 16.165V7.335C1.8761 3.546 4.3131 1 7.9401 1H17.3121C20.9391 1 23.3761 3.546 23.3761 7.335V16.165C23.3761 19.954 20.9391 22.5 17.3121 22.5Z" fill="#252525"/>
</svg>
