<svg width="20" height="20" viewBox="0 0 20 20" fill="none" xmlns="http://www.w3.org/2000/svg">
<mask id="mask0" mask-type="alpha" maskUnits="userSpaceOnUse" x="3" y="5" width="15" height="14">
<path fill-rule="evenodd" clip-rule="evenodd" d="M3.33362 5H17.0834V18.7497H3.33362V5Z" fill="white"/>
</mask>
<g mask="url(#mask0)">
<path fill-rule="evenodd" clip-rule="evenodd" d="M4.91584 7.05278C4.91718 7.05278 4.88364 7.08766 4.84139 7.12925C4.67907 7.28687 4.34303 7.61486 4.33968 8.30102C4.33431 9.26084 4.96547 11.043 8.00457 14.0814C11.0296 17.1051 12.809 17.7436 13.7709 17.7436H13.785C14.4711 17.7403 14.7984 17.4036 14.9567 17.2419C15.005 17.1923 15.0439 17.1561 15.0714 17.1333C15.7395 16.4612 16.0816 15.9608 16.0782 15.6402C16.0735 15.3129 15.6664 14.9259 15.1036 14.3906C14.9245 14.2203 14.73 14.0351 14.5248 13.8299C13.9929 13.2993 13.7293 13.3899 13.1498 13.5938C12.3483 13.8748 11.2482 14.2571 9.53921 12.5474C7.8275 10.8371 8.21049 9.7384 8.49086 8.93688C8.69342 8.35736 8.78598 8.09309 8.25342 7.56053C8.04482 7.3526 7.85768 7.1554 7.6853 6.97431C7.15341 6.41491 6.76975 6.01046 6.44444 6.00577H6.43908C6.1178 6.00577 5.61877 6.34918 4.91249 7.05546C4.9145 7.05345 4.91517 7.05278 4.91584 7.05278ZM13.7716 18.7497C12.1002 18.7497 9.92096 17.4189 7.29369 14.793C4.65636 12.1564 3.32361 9.97043 3.33367 8.2956C3.33971 7.18889 3.9199 6.62212 4.13789 6.4095C4.14929 6.39541 4.18819 6.35718 4.20161 6.34377C5.16344 5.38126 5.81204 4.99224 6.45729 4.99961C7.2065 5.00968 7.73973 5.57041 8.41449 6.28072C8.5815 6.45645 8.7626 6.64761 8.96449 6.84883C9.94376 7.8281 9.66474 8.62695 9.44071 9.26817C9.19657 9.96775 8.98528 10.5714 10.2503 11.8364C11.5166 13.1014 12.1203 12.8901 12.8172 12.644C13.4591 12.42 14.2559 12.1396 15.2365 13.1189C15.4351 13.3174 15.6235 13.4965 15.7973 13.6622C16.5109 14.3403 17.0743 14.8762 17.0837 15.6274C17.0918 16.268 16.7028 16.9206 15.7423 17.8817L15.317 17.5933L15.6765 17.9448C15.4639 18.1628 14.8978 18.7436 13.7904 18.7497H13.7716Z" fill="#EEBBA5"/>
</g>
</svg>
