<svg width="25" height="24" viewBox="0 0 25 24" fill="none" xmlns="http://www.w3.org/2000/svg">
<mask id="mask0" mask-type="alpha" maskUnits="userSpaceOnUse" x="2" y="2" width="22" height="21">
<path fill-rule="evenodd" clip-rule="evenodd" d="M2.58264 2.99988H23.0552V22.5009H2.58264V2.99988Z" fill="white"/>
</mask>
<g mask="url(#mask0)">
<path fill-rule="evenodd" clip-rule="evenodd" d="M4.40635 12.123C5.80835 16.485 11.3474 20.012 12.8194 20.885C14.2964 20.003 19.8754 16.437 21.2324 12.127C22.1234 9.341 21.2964 5.812 18.0104 4.753C16.4184 4.242 14.5614 4.553 13.2794 5.545C13.0114 5.751 12.6394 5.755 12.3694 5.551C11.0114 4.53 9.23735 4.231 7.62035 4.753C4.33935 5.811 3.51535 9.34 4.40635 12.123ZM12.8204 22.501C12.6964 22.501 12.5734 22.471 12.4614 22.41C12.1484 22.239 4.77535 18.175 2.97835 12.581C2.97735 12.581 2.97735 12.58 2.97735 12.58C1.84935 9.058 3.10535 4.632 7.16035 3.325C9.06435 2.709 11.1394 2.98 12.8174 4.039C14.4434 3.011 16.6034 2.727 18.4694 3.325C22.5284 4.634 23.7884 9.059 22.6614 12.58C20.9224 18.11 13.4954 22.235 13.1804 22.408C13.0684 22.47 12.9444 22.501 12.8204 22.501Z" fill="#eebba5"/>
</g>
</svg>
