<svg width="18" height="18" viewBox="0 0 18 18" fill="none" xmlns="http://www.w3.org/2000/svg">
<mask id="mask0" mask-type="alpha" maskUnits="userSpaceOnUse" x="1" y="2" width="16" height="15">
<path fill-rule="evenodd" clip-rule="evenodd" d="M1.5 2.24988H16.8544V16.8756H1.5V2.24988Z" fill="white"/>
</mask>
<g mask="url(#mask0)">
<path fill-rule="evenodd" clip-rule="evenodd" d="M2.86797 9.09222C3.91947 12.3637 8.07372 15.009 9.17772 15.6637C10.2855 15.0022 14.4697 12.3277 15.4875 9.09522C16.1557 7.00572 15.5355 4.35897 13.071 3.56472C11.877 3.18147 10.4842 3.41472 9.52272 4.15872C9.32172 4.31322 9.04272 4.31622 8.84022 4.16322C7.82172 3.39747 6.49122 3.17322 5.27847 3.56472C2.81772 4.35822 2.19972 7.00497 2.86797 9.09222ZM9.17847 16.8757C9.08547 16.8757 8.99322 16.8532 8.90922 16.8075C8.67447 16.6792 3.14472 13.6312 1.79697 9.43572C1.79622 9.43572 1.79622 9.43497 1.79622 9.43497C0.950217 6.79347 1.89222 3.47397 4.93347 2.49372C6.36147 2.03172 7.91772 2.23497 9.17622 3.02922C10.3957 2.25822 12.0157 2.04522 13.4152 2.49372C16.4595 3.47547 17.4045 6.79422 16.5592 9.43497C15.255 13.5825 9.68472 16.6762 9.44847 16.806C9.36447 16.8525 9.27147 16.8757 9.17847 16.8757Z" fill="#130F26"/>
</g>
</svg>
