<svg width="32" height="21" viewBox="0 0 32 21" fill="none" xmlns="http://www.w3.org/2000/svg">
<path d="M14.0408 20.5326C13.8423 20.5326 13.6463 20.44 13.5183 20.2641C13.3015 19.9675 13.3602 19.5473 13.6489 19.3245L15.5639 17.8478L13.6489 16.3712C13.3602 16.1484 13.3015 15.7282 13.5183 15.4315C13.7351 15.1348 14.144 15.0758 14.4327 15.2973L17.0452 17.3109C17.2098 17.437 17.3064 17.6371 17.3064 17.8478C17.3064 18.0586 17.2098 18.2586 17.0452 18.3848L14.4327 20.3984C14.3151 20.4883 14.178 20.5326 14.0408 20.5326Z" fill="#EEBBA5"/>
<path d="M16.0002 18.519C14.0251 18.519 12.1559 18.4224 10.4434 18.2331C8.07387 17.9874 0.325195 16.9431 0.325195 13.8207C0.325195 12.5467 1.60401 11.4822 4.12377 10.658C4.53785 10.5264 4.98198 10.858 4.98198 11.2983C4.98198 11.6232 4.76253 11.8943 4.4647 11.9561C2.3747 12.6474 1.63145 13.3924 1.63145 13.8207C1.63145 14.7147 4.40723 16.2584 10.5793 16.8974C12.2486 17.0827 14.0709 17.1766 16.0002 17.1766C16.3607 17.1766 16.6533 17.4773 16.6533 17.8478C16.6533 18.2183 16.3607 18.519 16.0002 18.519Z" fill="#EEBBA5"/>
<path d="M20.5591 18.3176C20.2221 18.3176 19.936 18.0518 19.9086 17.7015C19.8798 17.3323 20.1476 17.0075 20.5068 16.9779C27.234 16.4128 30.369 14.7603 30.369 13.8206C30.369 13.3884 29.6127 12.6353 27.4796 11.9373C27.1361 11.8245 26.9466 11.4473 27.0551 11.0942C27.1648 10.7412 27.5305 10.5465 27.8754 10.658C30.3965 11.4822 31.6753 12.5467 31.6753 13.8206C31.6753 17.1296 23.2082 18.0975 20.6126 18.3163C20.5944 18.3176 20.5761 18.3176 20.5591 18.3176Z" fill="#EEBBA5"/>
<path d="M9.76964 5.02841C10.3901 5.14285 10.8872 5.43304 11.261 5.89897C11.6428 6.3649 11.8337 6.92074 11.8337 7.5665C11.8337 8.35123 11.5713 9.00108 11.0463 9.51605C10.5293 10.0229 9.881 10.2763 9.10149 10.2763C8.34585 10.2763 7.71748 10.0351 7.21637 9.55283C6.72321 9.06238 6.46072 8.43297 6.42891 7.66459H7.71748C7.74134 8.0733 7.88054 8.40436 8.13507 8.65776C8.3896 8.90299 8.71174 9.0256 9.10149 9.0256C9.51511 9.0256 9.85714 8.88664 10.1276 8.60871C10.398 8.32262 10.5332 7.96295 10.5332 7.52972C10.5332 7.31719 10.4935 7.12101 10.4139 6.94118C10.3344 6.75317 10.227 6.59377 10.0918 6.46299C9.95656 6.3322 9.7935 6.23411 9.60261 6.16872C9.41171 6.09515 9.2049 6.05836 8.98218 6.05836H7.97996V5.80088L9.62647 3.17696H6.66753V1.97535H11.5235V2.2451L9.76964 5.02841Z" fill="#EEBBA5"/>
<path d="M16.0812 4.77093C16.8209 4.77093 17.4493 5.02024 17.9663 5.51887C18.4913 6.00932 18.7537 6.64691 18.7537 7.43163C18.7537 7.9793 18.6305 8.46975 18.3839 8.90299C18.1373 9.33622 17.7913 9.67545 17.3459 9.92067C16.9084 10.1577 16.4112 10.2763 15.8545 10.2763C14.9954 10.2763 14.2915 10.0106 13.7426 9.47927C13.2018 8.94794 12.9313 8.2654 12.9313 7.43163C12.9313 6.6796 13.2177 5.7927 13.7904 4.77093L15.3772 1.9263H16.7851C15.8704 3.59384 15.3215 4.60335 15.1386 4.95485C15.4488 4.83223 15.763 4.77093 16.0812 4.77093ZM15.8425 9.0256C16.3118 9.0256 16.6976 8.87846 16.9999 8.58419C17.3021 8.28175 17.4532 7.89756 17.4532 7.43163C17.4532 6.95753 17.3021 6.57334 16.9999 6.27907C16.6976 5.97662 16.3118 5.8254 15.8425 5.8254C15.5403 5.8254 15.2659 5.89488 15.0193 6.03384C14.7727 6.1728 14.5778 6.3649 14.4346 6.61012C14.2994 6.84717 14.2318 7.12101 14.2318 7.43163C14.2318 7.89756 14.3829 8.28175 14.6852 8.58419C14.9954 8.87846 15.3812 9.0256 15.8425 9.0256Z" fill="#EEBBA5"/>
<path d="M22.8405 10.2763C21.878 10.2763 21.1144 9.89615 20.5497 9.13595C19.9849 8.37575 19.7025 7.3458 19.7025 6.0461C19.7025 4.7464 19.9809 3.72054 20.5377 2.96851C21.1025 2.20831 21.87 1.82821 22.8405 1.82821C23.8029 1.82821 24.5625 2.20831 25.1193 2.96851C25.6841 3.72054 25.9664 4.7464 25.9664 6.0461C25.9664 7.3458 25.6841 8.37575 25.1193 9.13595C24.5546 9.89615 23.7949 10.2763 22.8405 10.2763ZM22.8405 9.0256C23.4132 9.0256 23.8586 8.76402 24.1767 8.24087C24.5029 7.71773 24.6659 6.98614 24.6659 6.0461C24.6659 5.42486 24.5904 4.89354 24.4392 4.45213C24.2961 4.00255 24.0853 3.66332 23.8069 3.43444C23.5364 3.19739 23.2143 3.07887 22.8405 3.07887C22.4587 3.07887 22.1286 3.19739 21.8502 3.43444C21.5718 3.66332 21.361 4.00255 21.2178 4.45213C21.0746 4.89354 21.003 5.42486 21.003 6.0461C21.003 6.98614 21.1621 7.71773 21.4803 8.24087C21.8064 8.76402 22.2598 9.0256 22.8405 9.0256Z" fill="#EEBBA5"/>
<path d="M28.1282 1.9005C27.9899 2.03922 27.8161 2.10857 27.6069 2.10857C27.3977 2.10857 27.223 2.03922 27.083 1.9005C26.9446 1.76006 26.8755 1.58406 26.8755 1.37252C26.8755 1.23381 26.9067 1.1081 26.9691 0.995396C27.0332 0.882691 27.121 0.795128 27.2323 0.732707C27.3454 0.668552 27.4702 0.636475 27.6069 0.636475C27.7435 0.636475 27.8676 0.668552 27.9789 0.732707C28.092 0.795128 28.1797 0.882691 28.2421 0.995396C28.3062 1.1081 28.3383 1.23381 28.3383 1.37252C28.3383 1.58406 28.2683 1.76006 28.1282 1.9005ZM27.6069 1.83288C27.6929 1.83288 27.7697 1.81381 27.8372 1.77566C27.9047 1.73578 27.957 1.68116 27.9941 1.6118C28.0329 1.54071 28.0523 1.46095 28.0523 1.37252C28.0523 1.23901 28.0101 1.12891 27.9258 1.04221C27.8431 0.955516 27.7368 0.912168 27.6069 0.912168C27.477 0.912168 27.3698 0.955516 27.2855 1.04221C27.2028 1.12891 27.1614 1.23901 27.1614 1.37252C27.1614 1.50604 27.2028 1.61614 27.2855 1.70284C27.3698 1.78953 27.477 1.83288 27.6069 1.83288Z" fill="#EEBBA5"/>
</svg>
