<svg width="25" height="24" viewBox="0 0 25 24" fill="none" xmlns="http://www.w3.org/2000/svg">
<path fill-rule="evenodd" clip-rule="evenodd" d="M12.7574 9.6413C11.4274 9.6413 10.3464 10.7233 10.3464 12.0533C10.3464 13.3823 11.4274 14.4633 12.7574 14.4633C14.0874 14.4633 15.1694 13.3823 15.1694 12.0533C15.1694 10.7233 14.0874 9.6413 12.7574 9.6413ZM12.7574 15.9633C10.6004 15.9633 8.84644 14.2093 8.84644 12.0533C8.84644 9.8963 10.6004 8.1413 12.7574 8.1413C14.9144 8.1413 16.6694 9.8963 16.6694 12.0533C16.6694 14.2093 14.9144 15.9633 12.7574 15.9633Z" fill="#eebba5"/>
<mask id="mask0" mask-type="alpha" maskUnits="userSpaceOnUse" x="2" y="4" width="21" height="17">
<path fill-rule="evenodd" clip-rule="evenodd" d="M2.75793 4.00018H22.7578V20.1052H2.75793V4.00018Z" fill="white"/>
</mask>
<g mask="url(#mask0)">
<path fill-rule="evenodd" clip-rule="evenodd" d="M4.32768 12.0525C6.18768 16.1615 9.32068 18.6045 12.7577 18.6055C16.1947 18.6045 19.3277 16.1615 21.1877 12.0525C19.3277 7.94451 16.1947 5.50151 12.7577 5.50051C9.32168 5.50151 6.18768 7.94451 4.32768 12.0525ZM12.7597 20.1055H12.7557H12.7547C8.61868 20.1025 4.90468 17.2035 2.81868 12.3485C2.73768 12.1595 2.73768 11.9455 2.81868 11.7565C4.90468 6.90251 8.61968 4.00351 12.7547 4.00051C12.7567 3.99951 12.7567 3.99951 12.7577 4.00051C12.7597 3.99951 12.7597 3.99951 12.7607 4.00051C16.8967 4.00351 20.6107 6.90251 22.6967 11.7565C22.7787 11.9455 22.7787 12.1595 22.6967 12.3485C20.6117 17.2035 16.8967 20.1025 12.7607 20.1055H12.7597Z" fill="#eebba5"/>
</g>
</svg>
