<svg width="20" height="20" viewBox="0 0 20 20" fill="none" xmlns="http://www.w3.org/2000/svg">
<path fill-rule="evenodd" clip-rule="evenodd" d="M5.20817 2.91663C2.9165 2.91663 2.9165 3.08996 2.9165 5.20829V5.22913C2.9165 6.15163 2.9165 6.81829 3.14234 7.09996C3.36317 7.37329 4.019 7.49996 5.20817 7.49996C6.39734 7.49996 7.05317 7.37246 7.274 7.09913C7.49984 6.81829 7.49984 6.15163 7.49984 5.22829C7.49984 3.08996 7.49984 2.91663 5.20817 2.91663ZM5.20817 8.74996C3.80317 8.74996 2.749 8.60246 2.16984 7.88329C1.6665 7.25913 1.6665 6.40746 1.6665 5.22913L2.2915 5.20829H1.6665C1.6665 2.81663 1.81734 1.66663 5.20817 1.66663C8.599 1.66663 8.74984 2.81663 8.74984 5.20829C8.74984 6.40663 8.74984 7.25913 8.2465 7.88329C7.66734 8.60246 6.61317 8.74996 5.20817 8.74996Z" fill="#252525"/>
<path fill-rule="evenodd" clip-rule="evenodd" d="M14.3747 2.91663C12.083 2.91663 12.083 3.08996 12.083 5.20829V5.22913C12.083 6.15163 12.083 6.81829 12.3088 7.09996C12.5297 7.37329 13.1855 7.49996 14.3747 7.49996C15.5638 7.49996 16.2197 7.37246 16.4405 7.09913C16.6663 6.81829 16.6663 6.15163 16.6663 5.22829C16.6663 3.08996 16.6663 2.91663 14.3747 2.91663ZM14.3747 8.74996C12.9697 8.74996 11.9155 8.60246 11.3363 7.88329C10.833 7.25913 10.833 6.40746 10.833 5.22913L11.458 5.20829H10.833C10.833 2.81663 10.9838 1.66663 14.3747 1.66663C17.7655 1.66663 17.9163 2.81663 17.9163 5.20829C17.9163 6.40663 17.9163 7.25913 17.413 7.88329C16.8338 8.60246 15.7797 8.74996 14.3747 8.74996Z" fill="#252525"/>
<path fill-rule="evenodd" clip-rule="evenodd" d="M5.20817 12.0833C2.9165 12.0833 2.9165 12.2566 2.9165 14.3749V14.3958C2.9165 15.3183 2.9165 15.9849 3.14234 16.2666C3.36317 16.5399 4.019 16.6666 5.20817 16.6666C6.39734 16.6666 7.05317 16.5391 7.274 16.2658C7.49984 15.9849 7.49984 15.3183 7.49984 14.3949C7.49984 12.2566 7.49984 12.0833 5.20817 12.0833ZM5.20817 17.9166C3.80317 17.9166 2.749 17.7691 2.16984 17.0499C1.6665 16.4258 1.6665 15.5741 1.6665 14.3958L2.2915 14.3749H1.6665C1.6665 11.9833 1.81734 10.8333 5.20817 10.8333C8.599 10.8333 8.74984 11.9833 8.74984 14.3749C8.74984 15.5733 8.74984 16.4258 8.2465 17.0499C7.66734 17.7691 6.61317 17.9166 5.20817 17.9166Z" fill="#252525"/>
<path fill-rule="evenodd" clip-rule="evenodd" d="M14.3747 12.0833C12.083 12.0833 12.083 12.2566 12.083 14.3749V14.3958C12.083 15.3183 12.083 15.9849 12.3088 16.2666C12.5297 16.5399 13.1855 16.6666 14.3747 16.6666C15.5638 16.6666 16.2197 16.5391 16.4405 16.2658C16.6663 15.9849 16.6663 15.3183 16.6663 14.3949C16.6663 12.2566 16.6663 12.0833 14.3747 12.0833ZM14.3747 17.9166C12.9697 17.9166 11.9155 17.7691 11.3363 17.0499C10.833 16.4258 10.833 15.5741 10.833 14.3958L11.458 14.3749H10.833C10.833 11.9833 10.9838 10.8333 14.3747 10.8333C17.7655 10.8333 17.9163 11.9833 17.9163 14.3749C17.9163 15.5733 17.9163 16.4258 17.413 17.0499C16.8338 17.7691 15.7797 17.9166 14.3747 17.9166Z" fill="#252525"/>
</svg>
