<svg width="18" height="18" viewBox="0 0 18 18" fill="none" xmlns="http://www.w3.org/2000/svg">
<path fill-rule="evenodd" clip-rule="evenodd" d="M6.1749 4.25336C5.56513 5.01359 5.25 6.06411 5.25 7.15909C5.25 9.38798 6.27558 11.3803 7.3548 12.8519C7.88989 13.5816 8.42586 14.1663 8.82721 14.5677C8.88817 14.6286 8.94593 14.6853 9 14.7375C9.05407 14.6853 9.11183 14.6286 9.17279 14.5677C9.57414 14.1663 10.1101 13.5816 10.6452 12.8519C11.7244 11.3803 12.75 9.38798 12.75 7.15909C12.75 6.06411 12.4349 5.01359 11.8251 4.25336C11.2327 3.51477 10.3251 3 9 3C7.67493 3 6.76731 3.51477 6.1749 4.25336ZM9 15.75C8.52507 16.3305 8.52487 16.3303 8.52465 16.3301L8.52276 16.3286L8.51882 16.3253L8.50612 16.3148C8.49556 16.3059 8.48083 16.2935 8.46222 16.2776C8.42501 16.2458 8.37223 16.2 8.30612 16.1408C8.17395 16.0223 7.98812 15.8499 7.76654 15.6283C7.32414 15.1859 6.73511 14.5434 6.1452 13.739C4.97442 12.1425 3.75 9.83929 3.75 7.15909C3.75 5.79953 4.138 4.3955 5.00479 3.31483C5.88894 2.2125 7.23132 1.5 9 1.5C10.7687 1.5 12.1111 2.2125 12.9952 3.31483C13.862 4.3955 14.25 5.79953 14.25 7.15909C14.25 9.83929 13.0256 12.1425 11.8548 13.739C11.2649 14.5434 10.6759 15.1859 10.2335 15.6283C10.0119 15.8499 9.82605 16.0223 9.69388 16.1408C9.62777 16.2 9.57499 16.2458 9.53778 16.2776C9.51917 16.2935 9.50444 16.3059 9.49388 16.3148L9.48118 16.3253L9.47724 16.3286L9.47588 16.3297C9.47566 16.3299 9.47493 16.3305 9 15.75ZM9 15.75L9.47493 16.3305C9.19865 16.5565 8.80092 16.5562 8.52465 16.3301L9 15.75Z" fill="#EEBBA5"/>
<path fill-rule="evenodd" clip-rule="evenodd" d="M9 6C8.58579 6 8.25 6.33579 8.25 6.75C8.25 7.16421 8.58579 7.5 9 7.5C9.41421 7.5 9.75 7.16421 9.75 6.75C9.75 6.33579 9.41421 6 9 6ZM6.75 6.75C6.75 5.50736 7.75736 4.5 9 4.5C10.2426 4.5 11.25 5.50736 11.25 6.75C11.25 7.99264 10.2426 9 9 9C7.75736 9 6.75 7.99264 6.75 6.75Z" fill="#EEBBA5"/>
</svg>
