<svg width="18" height="18" viewBox="0 0 18 18" fill="none" xmlns="http://www.w3.org/2000/svg">
<path fill-rule="evenodd" clip-rule="evenodd" d="M3.75 3.75C2.50736 3.75 1.5 4.75736 1.5 6V12C1.5 13.2426 2.50736 14.25 3.75 14.25H14.25C15.4926 14.25 16.5 13.2426 16.5 12V6C16.5 4.75736 15.4926 3.75 14.25 3.75H3.75ZM3 6.13444V12C3 12.4142 3.33579 12.75 3.75 12.75H14.25C14.6642 12.75 15 12.4142 15 12V6.13445L9.00001 9.88445L3 6.13444ZM13.5849 5.25H4.41509L9.00001 8.11557L13.5849 5.25Z" fill="#EEBBA5"/>
</svg>
