<svg width="167" height="67" viewBox="0 0 167 67" fill="none" xmlns="http://www.w3.org/2000/svg">
<path d="M73.7771 21.2732H59.5949M98.0361 21.2732V43.1063H59.5949V21.2732M52.5038 43.1063H1V21.2732H49.5181H59.5949M165.961 21.2732V43.1063H144.688V21.2732" stroke="black" stroke-width="0.746432"/>
<path d="M121.709 0V13.676M134.27 29.6743V16.7724C122.991 14.0888 112.651 15.6542 108.891 16.7724V24.7716M134.27 29.6743C133.418 29.1491 132.286 28.5406 130.937 27.9235M134.27 29.6743H130.937M108.891 24.7716C109.997 24.5266 111.111 24.3616 112.224 24.2652M108.891 24.7716C109.346 25.5457 110.63 27.1455 112.136 27.3519M112.224 24.2652C119.327 23.65 126.374 25.8357 130.937 27.9235M112.224 24.2652L112.136 27.3519M130.937 27.9235V29.6743M130.937 29.6743C125.469 29.1582 114.018 29.1582 111.968 33.2868M130.937 29.6743C127.656 34.0015 116.924 33.8856 111.968 33.2868M111.968 33.2868L112.136 27.3519M119.658 15.4822C119.658 14.3421 120.576 13.934 121.709 13.934C122.841 13.934 123.76 14.3421 123.76 15.4822" stroke="black" stroke-width="0.746432"/>
<path d="M5.42656 39.8088C6.23704 39.8088 6.86741 39.2044 6.86741 38.3582C6.86741 37.5121 6.23704 36.8774 5.42656 36.8774C4.58607 36.8774 3.98572 37.5121 3.98572 38.3582C3.98572 39.2044 4.58607 39.8088 5.42656 39.8088ZM4.40596 66.0699H6.47718V51.4434H4.40596V66.0699Z" fill="black"/>
<path d="M12.9884 66.0397V58.4242C12.9884 54.9187 14.8795 52.9544 17.6412 52.9544C19.8625 52.9544 21.5735 53.9517 21.5735 57.5781V66.0699H23.6447V57.1248C23.6447 53.4984 22.0237 51.0506 18.0014 51.0506C15.9001 51.0506 13.979 52.1083 13.0184 53.9819L12.7183 51.4434H10.9172V66.0397H12.9884Z" fill="black"/>
<path d="M30.984 66.0699V53.166H33.8657V51.4434H30.984V46.8198H28.9428V51.4434H26.0311V53.166H28.9428V66.0699H30.984Z" fill="black"/>
<path d="M35.2798 58.7567C35.2798 63.4407 37.9814 66.4325 42.0638 66.4325C45.3357 66.4325 47.9473 64.5891 48.6977 61.688H46.6865C46.2062 63.4105 44.3752 64.6193 42.0938 64.6193C39.4523 64.6193 37.5311 62.9874 37.321 59.6935H48.6677V58.7264C48.6677 54.0121 46.0862 51.0506 42.0638 51.0506C38.0714 51.0506 35.2798 54.0423 35.2798 58.7567ZM37.351 58.1825C37.4411 54.6467 39.3922 52.8638 42.0338 52.8638C44.5553 52.8638 46.5364 54.4654 46.5965 58.1825H37.351Z" fill="black"/>
<path d="M59.7566 51.2621C57.2651 50.7484 55.0438 51.5341 54.2034 53.438L54.0833 51.4434H52.1622V66.0699H54.2334V57.7292C54.2334 54.9489 55.7042 53.0753 58.3758 53.0753H59.7566V51.2621Z" fill="black"/>
<path d="M63.5564 40.5552C64.3669 40.5552 64.9973 39.9508 64.9973 39.1046C64.9973 38.2585 64.3669 37.6239 63.5564 37.6239C62.7159 37.6239 62.1156 38.2585 62.1156 39.1046C62.1156 39.9508 62.7159 40.5552 63.5564 40.5552ZM62.5358 66.0699H64.607V51.4434H62.5358V66.0699Z" fill="black"/>
<path d="M67.8764 58.7567C67.8764 63.0479 70.7881 66.4325 75.2007 66.4325C79.5833 66.4325 82.525 63.0479 82.525 58.7567C82.525 54.4352 79.5833 51.0506 75.2007 51.0506C70.7881 51.0506 67.8764 54.4352 67.8764 58.7567ZM70.0076 58.7264C70.0076 55.4325 72.0188 52.9242 75.2007 52.9242C78.3525 52.9242 80.3937 55.4325 80.3937 58.7264C80.3937 62.0506 78.3525 64.5589 75.2007 64.5589C72.0188 64.5589 70.0076 62.0506 70.0076 58.7264Z" fill="black"/>
<path d="M93.5851 51.2621C91.0936 50.7484 88.8723 51.5341 88.0318 53.438L87.9118 51.4434H85.9906V66.0699H88.0618V57.7292C88.0618 54.9489 89.5327 53.0753 92.2043 53.0753H93.5851V51.2621Z" fill="black"/>
<path d="M106.581 66.0699L106.761 63.0781C107.782 65.3446 109.853 66.4325 112.285 66.4325C116.517 66.4325 119.009 63.1688 119.039 58.7869C119.039 54.3748 116.577 51.0506 112.345 51.0506C109.883 51.0506 107.812 52.1989 106.791 54.405V44.0396H104.81V66.0699H106.581ZM107.002 58.7264C107.002 55.372 108.803 52.9242 111.984 52.9242C115.166 52.9242 116.937 55.372 116.937 58.7264C116.937 62.1111 115.166 64.5287 111.984 64.5287C108.803 64.5287 107.002 62.1111 107.002 58.7264Z" fill="black"/>
<path d="M127.74 66.4325C130.021 66.4325 132.062 65.3446 132.873 63.7127L132.993 66.0699H134.914V51.4434H132.843V59.21C132.843 62.6248 131.252 64.5589 128.4 64.5589C126.149 64.5589 124.558 63.3803 124.558 59.8446V51.4132H122.457V60.5094C122.457 64.0451 124.288 66.4325 127.74 66.4325Z" fill="black"/>
<path d="M142.7 66.0699V53.166H145.582V51.4434H142.7V46.8198H140.659V51.4434H137.747V53.166H140.659V66.0699H142.7Z" fill="black"/>
<path d="M149.3 40.5552C150.111 40.5552 150.741 39.9508 150.741 39.1046C150.741 38.2585 150.111 37.6239 149.3 37.6239C148.46 37.6239 147.859 38.2585 147.859 39.1046C147.859 39.9508 148.46 40.5552 149.3 40.5552ZM148.28 66.0699H150.351V51.4434H148.28V66.0699Z" fill="black"/>
<path d="M156.862 61.688L159.684 58.7567L164.306 66.0699H166.708L161.095 57.2759L166.678 51.4434H164.066L156.862 58.938V51.5039H154.791V66.0699H156.862V61.688Z" fill="black"/>
</svg>
