<svg width="60" height="55" viewBox="0 0 60 55" fill="none" xmlns="http://www.w3.org/2000/svg">
<path fill-rule="evenodd" clip-rule="evenodd" d="M32.0458 0.0438912C40.0862 -0.25555 48.6892 0.891561 54.272 6.14945C59.7862 11.3427 60.2107 19.1068 59.9387 26.3134C59.6785 33.2091 57.832 39.9684 52.8005 45.1423C47.4303 50.6645 40.1611 55.1572 32.0458 54.9958C24.05 54.8367 17.8749 49.4303 12.1817 44.3344C6.43412 39.1897 0.123914 33.6376 0.00197511 26.3134C-0.121094 18.9213 5.5263 12.6963 11.5725 7.73966C17.2701 3.06873 24.3729 0.329643 32.0458 0.0438912Z" fill="white"/>
<path fill-rule="evenodd" clip-rule="evenodd" d="M32.0458 0.0438912C40.0862 -0.25555 48.6892 0.891561 54.272 6.14945C59.7862 11.3427 60.2107 19.1068 59.9387 26.3134C59.6785 33.2091 57.832 39.9684 52.8005 45.1423C47.4303 50.6645 40.1611 55.1572 32.0458 54.9958C24.05 54.8367 17.8749 49.4303 12.1817 44.3344C6.43412 39.1897 0.123914 33.6376 0.00197511 26.3134C-0.121094 18.9213 5.5263 12.6963 11.5725 7.73966C17.2701 3.06873 24.3729 0.329643 32.0458 0.0438912Z" fill="#EDD6CC" fill-opacity="0.4"/>
<path d="M29.3068 33.6338C28.9338 33.1913 28.9011 32.5002 29.2078 32.0141L29.31 31.8748L33.4537 27.0017L29.31 22.1252C28.9354 21.6845 28.9001 20.9936 29.2051 20.506L29.3068 20.3662C29.6798 19.9237 30.2647 19.882 30.6776 20.2423L30.7959 20.3624L35.69 26.1186C36.0658 26.5606 36.0999 27.254 35.7925 27.7417L35.69 27.8814L30.7959 33.6376C30.3838 34.1223 29.7171 34.1206 29.3068 33.6338Z" fill="#252525"/>
</svg>
