<svg width="24" height="24" viewBox="0 0 24 24" fill="none" xmlns="http://www.w3.org/2000/svg">
<path d="M16.7815 15.7792C17.0472 15.5123 17.0705 15.0956 16.852 14.8025L16.7792 14.7185L13.8277 11.78L16.7792 8.83947C17.046 8.57378 17.0711 8.15717 16.8539 7.86309L16.7815 7.77881C16.5158 7.51197 16.0992 7.48687 15.8051 7.70409L15.7208 7.77653L12.2348 11.2475C11.9672 11.514 11.9428 11.9322 12.1618 12.2262L12.2348 12.3105L15.7208 15.7815C16.0143 16.0737 16.4892 16.0727 16.7815 15.7792Z" fill="#252525"/>
<path d="M11.7815 15.7792C12.0472 15.5123 12.0705 15.0956 11.852 14.8025L11.7792 14.7185L8.8277 11.78L11.7792 8.83947C12.046 8.57378 12.0711 8.15717 11.8539 7.86309L11.7815 7.77881C11.5158 7.51197 11.0992 7.48687 10.8051 7.70409L10.7208 7.77653L7.23481 11.2475C6.96716 11.514 6.94283 11.9322 7.16182 12.2262L7.23481 12.3105L10.7208 15.7815C11.0143 16.0737 11.4892 16.0727 11.7815 15.7792Z" fill="#252525"/>
</svg>
