<svg width="24" height="24" viewBox="0 0 24 24" fill="none" xmlns="http://www.w3.org/2000/svg">
<path d="M7.21853 15.7792C6.95284 15.5123 6.92953 15.0956 7.14802 14.8025L7.22081 14.7185L10.1723 11.78L7.22081 8.83947C6.95397 8.57378 6.92887 8.15717 7.14609 7.86309L7.21853 7.77881C7.48422 7.51197 7.90083 7.48687 8.19491 7.70409L8.27919 7.77653L11.7652 11.2475C12.0328 11.514 12.0572 11.9322 11.8382 12.2262L11.7652 12.3105L8.27919 15.7815C7.98566 16.0737 7.51079 16.0727 7.21853 15.7792Z" fill="#252525"/>
<path d="M12.2185 15.7792C11.9528 15.5123 11.9295 15.0956 12.148 14.8025L12.2208 14.7185L15.1723 11.78L12.2208 8.83947C11.954 8.57378 11.9289 8.15717 12.1461 7.86309L12.2185 7.77881C12.4842 7.51197 12.9008 7.48687 13.1949 7.70409L13.2792 7.77653L16.7652 11.2475C17.0328 11.514 17.0572 11.9322 16.8382 12.2262L16.7652 12.3105L13.2792 15.7815C12.9857 16.0737 12.5108 16.0727 12.2185 15.7792Z" fill="#252525"/>
</svg>
