<svg width="60" height="55" viewBox="0 0 60 55" fill="none" xmlns="http://www.w3.org/2000/svg">
<path fill-rule="evenodd" clip-rule="evenodd" d="M27.9542 0.0438912C19.9138 -0.25555 11.3108 0.891561 5.72802 6.14945C0.21384 11.3427 -0.210697 19.1068 0.061264 26.3134C0.321495 33.2091 2.16796 39.9684 7.19954 45.1423C12.5697 50.6645 19.8389 55.1572 27.9542 54.9958C35.95 54.8367 42.1251 49.4303 47.8183 44.3344C53.5659 39.1897 59.8761 33.6376 59.998 26.3134C60.1211 18.9213 54.4737 12.6963 48.4275 7.73966C42.7299 3.06873 35.6271 0.329643 27.9542 0.0438912Z" fill="white"/>
<path fill-rule="evenodd" clip-rule="evenodd" d="M27.9542 0.0438912C19.9138 -0.25555 11.3108 0.891561 5.72802 6.14945C0.21384 11.3427 -0.210697 19.1068 0.061264 26.3134C0.321495 33.2091 2.16796 39.9684 7.19954 45.1423C12.5697 50.6645 19.8389 55.1572 27.9542 54.9958C35.95 54.8367 42.1251 49.4303 47.8183 44.3344C53.5659 39.1897 59.8761 33.6376 59.998 26.3134C60.1211 18.9213 54.4737 12.6963 48.4275 7.73966C42.7299 3.06873 35.6271 0.329643 27.9542 0.0438912Z" fill="#EDD6CC" fill-opacity="0.4"/>
<path d="M30.6932 33.6338C31.0662 33.1913 31.0989 32.5002 30.7922 32.0141L30.69 31.8748L26.5463 27.0017L30.69 22.1252C31.0646 21.6845 31.0999 20.9936 30.7949 20.506L30.6932 20.3662C30.3202 19.9237 29.7353 19.882 29.3224 20.2423L29.2041 20.3624L24.31 26.1186C23.9342 26.5606 23.9001 27.254 24.2075 27.7417L24.31 27.8814L29.2041 33.6376C29.6162 34.1223 30.2829 34.1206 30.6932 33.6338Z" fill="#252525"/>
</svg>
