<svg width="52" height="52" viewBox="0 0 52 52" fill="none" xmlns="http://www.w3.org/2000/svg">
<path d="M23.1893 34.7416C22.5147 34.5166 22.065 33.8983 22.065 33.1674V32.6053H29.9353V33.1674C29.9353 33.8983 29.4856 34.5166 28.8111 34.7416C28.6423 34.7978 28.4737 34.854 28.2489 34.854H27.6868H24.3138H23.7516C23.5265 34.8541 23.3579 34.7978 23.1893 34.7416ZM37.8054 25.8595H32.9146H32.8583H18.4108H13.6324C12.6768 25.8595 11.9459 26.5904 11.9459 27.546V29.7947C11.9459 30.7503 12.6768 31.4812 13.6324 31.4812H20.9967H21.2778H22.1773H29.6541H29.8789H31.0595H38.3675C39.3232 31.4812 40.054 30.7503 40.054 29.7947V28.1081C40.054 26.8714 39.0422 25.8595 37.8054 25.8595ZM16.4995 22.7113C16.7806 23.6671 17.8487 24.7351 18.8607 24.7351H33.3644C33.6456 24.7351 34.9946 24.6227 35.6693 22.7113L39.5482 8.15133C39.7168 7.30807 39.8854 5.00322 38.2552 3.0357C36.8499 1.34919 34.3201 0.337326 31.0033 0.112403C30.4973 0 29.9914 0 29.4853 0H21.615C21.0529 0 20.4908 0 19.9848 0.0562015C19.9848 0.0562015 19.9848 0.0562015 19.9285 0.0562015C16.3869 0.393528 14.5318 1.79892 13.5761 3.0357C12.2831 4.72222 12.1707 6.74594 12.508 8.09513L16.4995 22.7113ZM9.41625 19.1698C9.36005 19.0012 9.24753 18.8324 9.13513 18.6638C8.29187 17.5394 5.93082 17.9892 4.69403 17.9892C3.79458 17.9892 3.06372 18.72 3.06372 19.6195C3.06372 20.6313 3.79458 21.3622 4.69403 21.3622H7.56101V22.4865V29.2324H9.80966C9.80966 29.2324 9.80966 21.2497 9.75346 20.5189C9.69738 20.0691 9.64117 19.5633 9.41625 19.1698ZM47.3059 17.9892C46.0131 17.9892 43.7081 17.5394 42.8649 18.6637C42.7525 18.8324 42.6401 19.001 42.5838 19.1696C42.4151 19.6194 42.3027 20.0691 42.3027 20.575C42.1903 21.2497 42.1903 29.2323 42.1903 29.2323H44.4389V22.4865V21.3622H47.3059C48.2054 21.3622 48.9362 20.6313 48.9362 19.6195C48.9362 18.72 48.2054 17.9892 47.3059 17.9892ZM37.3557 47.1092C37.693 47.1092 38.0302 47.1654 38.3675 47.2779C37.3557 44.6919 34.7135 42.6119 28.8108 42.106C28.4173 42.0498 28.08 42.0498 27.6866 41.9936V35.9783H24.3135V41.9934C23.92 41.9934 23.5265 42.0498 23.1893 42.0498C16.3309 42.5557 13.6325 45.1417 12.5644 47.1654C12.7893 47.1092 12.9579 47.1092 13.1827 47.1092C13.7448 47.1092 14.307 47.2779 14.813 47.6151C15.7125 46.2659 17.9049 44.6919 23.1893 44.2984C23.5266 44.2984 23.9201 44.2421 24.3135 44.2421V47.6151C24.8195 47.2779 25.3816 47.1092 26 47.1092C26.6185 47.1092 27.1806 47.2779 27.6866 47.6713V44.2983C28.0801 44.2983 28.4735 44.3545 28.8108 44.3545C33.2518 44.7481 35.1632 46.041 36.0065 47.4464C36.4562 47.2216 36.9059 47.1092 37.3557 47.1092ZM27.4054 48.9081C27.0681 48.5146 26.5622 48.2336 26 48.2336C25.5503 48.2336 25.213 48.4023 24.8758 48.6271C24.426 48.9644 24.1449 49.4703 24.1449 50.0325C24.1449 50.0888 24.1449 50.0888 24.1449 50.1449C24.1449 51.1567 24.9882 52 26 52C27.0119 52 27.8552 51.1567 27.8552 50.1449C27.8552 50.0887 27.8552 50.0887 27.8552 50.0325C27.8552 49.5826 27.6865 49.1891 27.4054 48.9081ZM38.8174 48.9081C38.4801 48.5146 37.9741 48.2336 37.412 48.2336C36.9623 48.2336 36.6249 48.4023 36.2877 48.6271C35.838 48.9644 35.5569 49.4703 35.5569 50.0325C35.5569 50.0888 35.5569 50.0888 35.5569 50.1449C35.5569 51.1567 36.4001 52 37.412 52C38.4239 52 39.2671 51.1567 39.2671 50.1449C39.2671 50.0887 39.2671 50.0887 39.2671 50.0325C39.2108 49.5826 39.0422 49.1891 38.8174 48.9081ZM14.6444 48.9081C14.3071 48.5146 13.8011 48.2336 13.239 48.2336C12.7893 48.2336 12.452 48.4023 12.1147 48.6271C11.665 48.9644 11.3839 49.4703 11.3839 50.0325C11.3839 50.0888 11.3839 50.0888 11.3839 50.1449C11.3839 51.1567 12.2271 52 13.239 52C14.2509 52 15.0941 51.1567 15.0941 50.1449C15.0941 50.0887 15.0941 50.0887 15.0941 50.0325C15.0378 49.5826 14.8692 49.1891 14.6444 48.9081Z" fill="#EEBBA5"/>
</svg>
