<svg width="15" height="16" viewBox="0 0 15 16" fill="none" xmlns="http://www.w3.org/2000/svg">
<path d="M7.56483 4.33759C5.53805 4.33759 3.90233 5.97331 3.90233 8.00009C3.90233 10.0269 5.53805 11.6626 7.56483 11.6626C9.59162 11.6626 11.2273 10.0269 11.2273 8.00009C11.2273 5.97331 9.59162 4.33759 7.56483 4.33759ZM7.56483 10.3804C6.25412 10.3804 5.18448 9.31081 5.18448 8.00009C5.18448 6.68938 6.25412 5.61973 7.56483 5.61973C8.87555 5.61973 9.94519 6.68938 9.94519 8.00009C9.94519 9.31081 8.87555 10.3804 7.56483 10.3804ZM11.3773 3.33402C10.9041 3.33402 10.522 3.71616 10.522 4.18938C10.522 4.66259 10.9041 5.04473 11.3773 5.04473C11.8505 5.04473 12.2327 4.66438 12.2327 4.18938C12.2328 4.07701 12.2108 3.96572 12.1679 3.86188C12.1249 3.75804 12.0619 3.66369 11.9825 3.58423C11.903 3.50478 11.8087 3.44178 11.7048 3.39884C11.601 3.35591 11.4897 3.33388 11.3773 3.33402ZM14.7041 8.00009C14.7041 7.01438 14.713 6.03759 14.6577 5.05366C14.6023 3.91081 14.3416 2.89652 13.5059 2.06081C12.6684 1.22331 11.6559 0.964377 10.513 0.90902C9.52733 0.853663 8.55055 0.862592 7.56662 0.862592C6.5809 0.862592 5.60412 0.853663 4.62019 0.90902C3.47733 0.964377 2.46305 1.22509 1.62733 2.06081C0.789834 2.89831 0.530906 3.91081 0.475549 5.05366C0.420191 6.03938 0.42912 7.01616 0.42912 8.00009C0.42912 8.98402 0.420191 9.96259 0.475549 10.9465C0.530906 12.0894 0.79162 13.1037 1.62733 13.9394C2.46483 14.7769 3.47733 15.0358 4.62019 15.0912C5.60591 15.1465 6.58269 15.1376 7.56662 15.1376C8.55233 15.1376 9.52912 15.1465 10.513 15.0912C11.6559 15.0358 12.6702 14.7751 13.5059 13.9394C14.3434 13.1019 14.6023 12.0894 14.6577 10.9465C14.7148 9.96259 14.7041 8.98581 14.7041 8.00009ZM13.1327 12.2108C13.0023 12.5358 12.8452 12.7787 12.5934 13.0287C12.3416 13.2804 12.1005 13.4376 11.7755 13.5679C10.8363 13.9412 8.6059 13.8572 7.56483 13.8572C6.52376 13.8572 4.29162 13.9412 3.35233 13.5697C3.02733 13.4394 2.78448 13.2822 2.53448 13.0304C2.28269 12.7787 2.12555 12.5376 1.99519 12.2126C1.62376 11.2715 1.70769 9.04116 1.70769 8.00009C1.70769 6.95902 1.62376 4.72688 1.99519 3.78759C2.12555 3.46259 2.28269 3.21973 2.53448 2.96973C2.78626 2.71973 3.02733 2.56081 3.35233 2.43045C4.29162 2.05902 6.52376 2.14295 7.56483 2.14295C8.6059 2.14295 10.838 2.05902 11.7773 2.43045C12.1023 2.56081 12.3452 2.71795 12.5952 2.96973C12.847 3.22152 13.0041 3.46259 13.1345 3.78759C13.5059 4.72688 13.422 6.95902 13.422 8.00009C13.422 9.04116 13.5059 11.2715 13.1327 12.2108Z" fill="#EEBBA5"/>
</svg>
