<svg width="20" height="12" viewBox="0 0 20 12" fill="none" xmlns="http://www.w3.org/2000/svg">
<path d="M18.9831 1.05958C19.1188 0.613081 18.9831 0.285645 18.3413 0.285645H16.215C15.674 0.285645 15.4267 0.568911 15.291 0.880023C15.291 0.880023 14.2099 3.49087 12.678 5.18374C12.1836 5.67633 11.9576 5.83189 11.6881 5.83189C11.5533 5.83189 11.3575 5.67634 11.3575 5.22983V1.05958C11.3575 0.52378 11.2014 0.285645 10.7505 0.285645H7.40941C7.07201 0.285645 6.8684 0.533382 6.8684 0.769597C6.8684 1.27659 7.63435 1.39374 7.71289 2.82255V5.92215C7.71289 6.60103 7.58975 6.7249 7.31828 6.7249C6.59789 6.7249 4.84491 4.10445 3.80457 1.10471C3.60193 0.521859 3.39735 0.286605 2.8544 0.286605H0.729113C0.121196 0.286605 0 0.569871 0 0.880983C0 1.43983 0.720387 4.20527 3.35566 7.86276C5.11251 10.3603 7.58588 11.7142 9.83914 11.7142C11.1897 11.7142 11.3565 11.4137 11.3565 10.8951V9.00735C11.3565 8.40625 11.4855 8.28526 11.913 8.28526C12.2272 8.28526 12.7682 8.44274 14.0296 9.6459C15.4704 11.0728 15.7089 11.7133 16.5185 11.7133H18.6438C19.2507 11.7133 19.5542 11.4127 19.3797 10.8193C19.1887 10.2288 18.5003 9.36935 17.5869 8.35248C17.0905 7.7725 16.3488 7.14836 16.1229 6.83628C15.8078 6.43395 15.8989 6.25631 16.1229 5.89911C16.1239 5.90007 18.7136 2.28771 18.9831 1.05958Z" fill="#EEBBA5"/>
</svg>
