<svg width="12" height="11" viewBox="0 0 12 11" fill="none" xmlns="http://www.w3.org/2000/svg">
<path d="M11.3497 3.74665L8.00957 3.26121L6.51643 0.23417C6.47565 0.151291 6.40856 0.0841991 6.32568 0.0434175C6.11783 -0.0591942 5.86524 0.0263156 5.76132 0.23417L4.26819 3.26121L0.928044 3.74665C0.835957 3.7598 0.751762 3.80321 0.687301 3.86899C0.609371 3.94909 0.566428 4.05685 0.567908 4.16859C0.569388 4.28034 0.61517 4.38692 0.695194 4.46493L3.11183 6.82105L2.54089 10.148C2.5275 10.2254 2.53606 10.305 2.56561 10.3778C2.59516 10.4506 2.6445 10.5136 2.70805 10.5598C2.7716 10.6059 2.84681 10.6333 2.92516 10.6389C3.0035 10.6445 3.08184 10.628 3.1513 10.5914L6.13888 9.02062L9.12645 10.5914C9.20802 10.6348 9.30274 10.6493 9.39351 10.6335C9.62241 10.594 9.77633 10.3769 9.73686 10.148L9.16592 6.82105L11.5826 4.46493C11.6483 4.40047 11.6917 4.31627 11.7049 4.22419C11.7404 3.99397 11.5799 3.78085 11.3497 3.74665Z" fill="white"/>
<path d="M11.3497 3.74665L8.00957 3.26121L6.51643 0.23417C6.47565 0.151291 6.40856 0.0841991 6.32568 0.0434175C6.11783 -0.0591942 5.86524 0.0263156 5.76132 0.23417L4.26819 3.26121L0.928044 3.74665C0.835957 3.7598 0.751762 3.80321 0.687301 3.86899C0.609371 3.94909 0.566428 4.05685 0.567908 4.16859C0.569388 4.28034 0.61517 4.38692 0.695194 4.46493L3.11183 6.82105L2.54089 10.148C2.5275 10.2254 2.53606 10.305 2.56561 10.3778C2.59516 10.4506 2.6445 10.5136 2.70805 10.5598C2.7716 10.6059 2.84681 10.6333 2.92516 10.6389C3.0035 10.6445 3.08184 10.628 3.1513 10.5914L6.13888 9.02062L9.12645 10.5914C9.20802 10.6348 9.30274 10.6493 9.39351 10.6335C9.62241 10.594 9.77633 10.3769 9.73686 10.148L9.16592 6.82105L11.5826 4.46493C11.6483 4.40047 11.6917 4.31627 11.7049 4.22419C11.7404 3.99397 11.5799 3.78085 11.3497 3.74665Z" fill="#EDD6CC" fill-opacity="0.4"/>
</svg>
