<svg width="12" height="11" viewBox="0 0 12 11" fill="none" xmlns="http://www.w3.org/2000/svg">
<path d="M11.2077 3.74665L7.8676 3.26121L6.37447 0.23417C6.33368 0.151291 6.26659 0.0841991 6.18371 0.0434175C5.97586 -0.0591942 5.72328 0.0263156 5.61935 0.23417L4.12622 3.26121L0.786076 3.74665C0.693989 3.7598 0.609794 3.80321 0.545333 3.86899C0.467403 3.94909 0.42446 4.05685 0.42594 4.16859C0.42742 4.28034 0.473202 4.38692 0.553226 4.46493L2.96986 6.82105L2.39892 10.148C2.38553 10.2254 2.3941 10.305 2.42364 10.3778C2.45319 10.4506 2.50253 10.5136 2.56608 10.5598C2.62963 10.6059 2.70484 10.6333 2.78319 10.6389C2.86153 10.6445 2.93987 10.628 3.00933 10.5914L5.99691 9.02062L8.98449 10.5914C9.06605 10.6348 9.16077 10.6493 9.25154 10.6335C9.48044 10.594 9.63436 10.3769 9.5949 10.148L9.02395 6.82105L11.4406 4.46493C11.5064 4.40047 11.5498 4.31627 11.5629 4.22419C11.5985 3.99397 11.438 3.78085 11.2077 3.74665Z" fill="#EEBBA5"/>
</svg>
